<?xml version="1.0" encoding="UTF-8" standalone="no"?>
<!-- Created with Inkscape (http://www.inkscape.org/) -->

<svg
   width="1683.8264"
   height="774.52985"
   viewBox="0 0 445.5124 204.92769"
   version="1.1"
   id="svg1"
   xml:space="preserve"
   inkscape:version="1.4.3 (0d15f75042, 2025-12-25)"
   sodipodi:docname="1_2_3_fail2ban_firewall_rules_illustration.svg"
   inkscape:export-filename="1_2_3_fail2ban_firewall_rules_illustration.png"
   inkscape:export-xdpi="96"
   inkscape:export-ydpi="96"
   xmlns:inkscape="http://www.inkscape.org/namespaces/inkscape"
   xmlns:sodipodi="http://sodipodi.sourceforge.net/DTD/sodipodi-0.dtd"
   xmlns="http://www.w3.org/2000/svg"
   xmlns:svg="http://www.w3.org/2000/svg"><sodipodi:namedview
     id="namedview1"
     pagecolor="#ffffff"
     bordercolor="#000000"
     borderopacity="0.25"
     inkscape:showpageshadow="2"
     inkscape:pageopacity="0.0"
     inkscape:pagecheckerboard="0"
     inkscape:deskcolor="#d1d1d1"
     inkscape:document-units="px"
     inkscape:zoom="0.66392581"
     inkscape:cx="783.22004"
     inkscape:cy="425.49935"
     inkscape:window-width="2560"
     inkscape:window-height="1371"
     inkscape:window-x="0"
     inkscape:window-y="0"
     inkscape:window-maximized="1"
     inkscape:current-layer="layer1"
     showguides="true" /><defs
     id="defs1"><inkscape:path-effect
       effect="bspline"
       id="path-effect97"
       is_visible="true"
       lpeversion="1.3"
       weight="33.333333"
       steps="2"
       helper_size="0"
       apply_no_weight="true"
       apply_with_weight="true"
       only_selected="false"
       uniform="false" /><inkscape:path-effect
       effect="bspline"
       id="path-effect84"
       is_visible="true"
       lpeversion="1.3"
       weight="33.333333"
       steps="2"
       helper_size="0"
       apply_no_weight="true"
       apply_with_weight="true"
       only_selected="false"
       uniform="false" /><inkscape:path-effect
       effect="bspline"
       id="path-effect76"
       is_visible="true"
       lpeversion="1.3"
       weight="33.333333"
       steps="2"
       helper_size="0"
       apply_no_weight="true"
       apply_with_weight="true"
       only_selected="false"
       uniform="false" /><inkscape:path-effect
       effect="bspline"
       id="path-effect74"
       is_visible="true"
       lpeversion="1.3"
       weight="33.333333"
       steps="2"
       helper_size="0"
       apply_no_weight="true"
       apply_with_weight="true"
       only_selected="false"
       uniform="false" /><inkscape:path-effect
       effect="bspline"
       id="path-effect38"
       is_visible="true"
       lpeversion="1.3"
       weight="33.333333"
       steps="2"
       helper_size="0"
       apply_no_weight="true"
       apply_with_weight="true"
       only_selected="false"
       uniform="false" /><marker
       style="overflow:visible"
       id="marker65"
       refX="0"
       refY="0"
       orient="auto-start-reverse"
       inkscape:stockid="Wide arrow"
       markerWidth="1"
       markerHeight="1"
       viewBox="0 0 1 1"
       inkscape:isstock="true"
       inkscape:collect="always"
       preserveAspectRatio="xMidYMid"><path
         style="fill:none;stroke:context-stroke;stroke-width:1;stroke-linecap:butt"
         d="M 3,-3 0,0 3,3"
         transform="rotate(180,0.125,0)"
         sodipodi:nodetypes="ccc"
         id="path65" /></marker><style
       type="text/css"
       id="style1-3"> .st0{fill:#000000;} </style><marker
       style="overflow:visible"
       id="marker65-7"
       refX="0"
       refY="0"
       orient="auto-start-reverse"
       inkscape:stockid="Wide arrow"
       markerWidth="1"
       markerHeight="1"
       viewBox="0 0 1 1"
       inkscape:isstock="true"
       inkscape:collect="always"
       preserveAspectRatio="xMidYMid"><path
         style="fill:none;stroke:context-stroke;stroke-width:1;stroke-linecap:butt"
         d="M 3,-3 0,0 3,3"
         transform="rotate(180,0.125,0)"
         sodipodi:nodetypes="ccc"
         id="path65-2" /></marker><inkscape:path-effect
       effect="bspline"
       id="path-effect72-2"
       is_visible="true"
       lpeversion="1.3"
       weight="33.333333"
       steps="2"
       helper_size="0"
       apply_no_weight="true"
       apply_with_weight="true"
       only_selected="false"
       uniform="false" /><style
       type="text/css"
       id="style1">  .st0{fill:#000000;}  </style></defs><g
     inkscape:label="Layer 1"
     inkscape:groupmode="layer"
     id="layer1"
     transform="translate(-34.424316,-41.533684)"><rect
       style="opacity:1;fill:#ffffff;fill-opacity:1;stroke:none;stroke-width:2.64583;stroke-linecap:square;stroke-linejoin:miter;stroke-dasharray:none;stroke-opacity:1"
       id="rect102"
       width="445.51239"
       height="204.92769"
       x="34.424316"
       y="41.533684" /><g
       id="SVGRepo_bgCarrier"
       stroke-width="0"
       transform="matrix(1.3924314,0,0,1.3924314,405.14684,62.626344)" /><g
       id="SVGRepo_tracerCarrier"
       stroke-linecap="round"
       stroke-linejoin="round"
       transform="matrix(1.3924314,0,0,1.3924314,405.14684,62.626344)"
       style="stroke-width:0.190015" /><g
       id="SVGRepo_bgCarrier-6"
       stroke-width="0"
       transform="matrix(0.0922732,0,0,0.0922732,315.9924,55.266584)" /><g
       id="SVGRepo_tracerCarrier-2"
       stroke-linecap="round"
       stroke-linejoin="round"
       transform="matrix(0.0922732,0,0,0.0922732,315.9924,55.266584)"
       style="stroke-width:2.86739" /><g
       id="SVGRepo_bgCarrier-9"
       stroke-width="0"
       transform="matrix(0.05077175,0,0,0.05077175,389.03652,112.68987)" /><g
       id="SVGRepo_tracerCarrier-3"
       stroke-linecap="round"
       stroke-linejoin="round"
       transform="matrix(0.05077175,0,0,0.05077175,389.03652,112.68987)"
       style="stroke-width:5.21123" /><g
       id="SVGRepo_bgCarrier-62"
       stroke-width="0"
       transform="matrix(0.26458333,0,0,0.26458333,105.30417,152.92917)" /><g
       id="SVGRepo_tracerCarrier-6"
       stroke-linecap="round"
       stroke-linejoin="round"
       transform="matrix(0.26458333,0,0,0.26458333,105.30417,152.92917)" /><g
       id="SVGRepo_bgCarrier-2"
       stroke-width="0"
       transform="matrix(0.08737819,0,0,0.08737819,335.34789,151.46243)" /><g
       id="SVGRepo_tracerCarrier-28"
       stroke-linecap="round"
       stroke-linejoin="round"
       transform="matrix(0.08737819,0,0,0.08737819,335.34789,151.46243)"
       style="stroke-width:3.02802" /><g
       id="SVGRepo_bgCarrier-61"
       stroke-width="0"
       transform="matrix(2.0818457,0,0,2.0818457,792.77155,44.291836)" /><g
       id="SVGRepo_tracerCarrier-5"
       stroke-linecap="round"
       stroke-linejoin="round"
       transform="matrix(2.0818457,0,0,2.0818457,792.77155,44.291836)"
       style="stroke-width:0.127091" /><g
       id="SVGRepo_bgCarrier-3"
       stroke-width="0"
       transform="matrix(0.98565337,0,0,0.98565337,777.62439,44.314067)" /><g
       id="SVGRepo_tracerCarrier-7"
       stroke-linecap="round"
       stroke-linejoin="round"
       transform="matrix(0.98565337,0,0,0.98565337,777.62439,44.314067)"
       style="stroke-width:2.0854" /><g
       id="SVGRepo_bgCarrier-0"
       stroke-width="0"
       transform="matrix(1.8477872,0,0,1.8477872,846.76508,63.796984)" /><g
       id="SVGRepo_tracerCarrier-6-5"
       stroke-linecap="round"
       stroke-linejoin="round"
       transform="matrix(1.8477872,0,0,1.8477872,846.76508,63.796984)"
       style="stroke-width:0.143189" /><g
       id="SVGRepo_bgCarrier-9-4"
       stroke-width="0"
       transform="matrix(1.5715912,0,0,1.5715912,892.17419,58.21435)" /><g
       id="SVGRepo_tracerCarrier-2-7"
       stroke-linecap="round"
       stroke-linejoin="round"
       transform="matrix(1.5715912,0,0,1.5715912,892.17419,58.21435)"
       style="stroke-width:0.168354" /><g
       id="SVGRepo_bgCarrier-97"
       stroke-width="0"
       transform="matrix(1.4093503,0,0,1.4093503,749.09891,60.017712)" /><g
       id="SVGRepo_tracerCarrier-3-6"
       stroke-linecap="round"
       stroke-linejoin="round"
       transform="matrix(1.4093503,0,0,1.4093503,749.09891,60.017712)"
       style="stroke-width:2.0854" /><g
       id="SVGRepo_bgCarrier-94"
       stroke-width="0"
       transform="matrix(2.2558878,0,0,2.2558878,662.32374,15.111429)" /><g
       id="SVGRepo_tracerCarrier-78"
       stroke-linecap="round"
       stroke-linejoin="round"
       transform="matrix(2.2558878,0,0,2.2558878,662.32374,15.111429)"
       style="stroke-width:0.117286" /><g
       id="SVGRepo_bgCarrier-1"
       stroke-width="0"
       transform="matrix(1.8781358,0,0,1.8781358,663.38286,50.524921)" /><g
       id="SVGRepo_tracerCarrier-0"
       stroke-linecap="round"
       stroke-linejoin="round"
       transform="matrix(1.8781358,0,0,1.8781358,663.38286,50.524921)"
       style="stroke-width:0.140876" /><g
       id="SVGRepo_bgCarrier-5"
       stroke-width="0"
       transform="matrix(2.0944078,0,0,2.0944078,617.69217,28.465754)" /><g
       id="SVGRepo_tracerCarrier-4"
       stroke-linecap="round"
       stroke-linejoin="round"
       transform="matrix(2.0944078,0,0,2.0944078,617.69217,28.465754)"
       style="stroke-width:0.126328" /><g
       id="SVGRepo_bgCarrier-4"
       stroke-width="0"
       transform="matrix(0.41793276,0,0,0.41793276,898.84019,-13.519755)" /><g
       id="SVGRepo_tracerCarrier-43"
       stroke-linecap="round"
       stroke-linejoin="round"
       transform="matrix(0.41793276,0,0,0.41793276,898.84019,-13.519755)"
       style="stroke-width:0.633077" /><g
       id="SVGRepo_bgCarrier-06"
       stroke-width="0"
       transform="matrix(0.26458333,0,0,0.26458333,317.08221,50.849132)" /><g
       id="SVGRepo_tracerCarrier-8"
       stroke-linecap="round"
       stroke-linejoin="round"
       transform="matrix(0.26458333,0,0,0.26458333,317.08221,50.849132)" /><g
       id="g104"
       transform="translate(-0.55466869,-4.1564217)"><rect
         style="fill:#f7f7f7;fill-opacity:1;stroke:#404040;stroke-width:0.529167;stroke-linecap:square;stroke-linejoin:miter;stroke-dasharray:none;stroke-opacity:1"
         id="rect72"
         width="301.62851"
         height="179.17059"
         x="161.46582"
         y="58.568653" /><g
         id="g2"
         style="fill:#000000;fill-opacity:1;stroke-width:3.47591"
         transform="matrix(0.07611913,0,0,0.07611913,52.111447,113.3074)"> <path
   class="st0"
   d="m 378.625,209.465 c -6.531,-38.344 -13.672,-80 -15.844,-91.844 -5.313,-28.906 -43.375,-45.063 -71.656,-24.234 -14.828,10.938 -28.094,11.719 -35.125,11.719 -7.031,0 -14.828,1.563 -35.125,-11.719 -29.391,-19.219 -66.344,-4.672 -71.656,24.234 -2.172,11.844 -9.313,53.5 -15.844,91.844 C 53.906,219.418 0,238.778 0,261.012 c 0,32.438 114.625,58.719 256,58.719 141.391,0 256,-26.281 256,-58.719 0,-22.234 -53.906,-41.594 -133.375,-51.547 z"
   id="path1-1"
   style="fill:#000000;fill-opacity:1;stroke-width:3.47591" /> <path
   class="st0"
   d="m 109.125,330.45 7.547,86.515 c 39.563,6.719 79.734,10.219 119.703,11.078 L 256,401.278 l 19.625,26.765 c 39.969,-0.859 80.141,-4.359 119.703,-11.078 l 7.547,-86.515 c -48.375,9.359 -97.906,13.5 -146.875,13.5 -48.984,0 -98.484,-4.141 -146.875,-13.5 z m 77.563,71.547 c -33.469,-1.578 -35.563,-41.766 -35.563,-41.766 l 75.125,14.672 c 0,0 -6.094,28.687 -39.562,27.094 z m 174.187,-41.766 c 0,0 -2.094,40.188 -35.563,41.766 -33.469,1.594 -39.563,-27.094 -39.563,-27.094 z"
   id="path2"
   style="fill:#000000;fill-opacity:1;stroke-width:3.47591" /> </g><text
         xml:space="preserve"
         style="font-weight:bold;font-size:6.35px;line-height:1.2;font-family:Inter;-inkscape-font-specification:'Inter Bold';text-align:center;writing-mode:lr-tb;direction:ltr;text-anchor:middle;fill:#000000;fill-opacity:1;stroke-width:5.29165"
         x="71.597946"
         y="157.56194"
         id="text1"><tspan
           sodipodi:role="line"
           id="tspan1"
           style="font-size:6.35px;fill:#000000;stroke-width:5.29165"
           x="71.597946"
           y="157.56194">Attacker</tspan><tspan
           sodipodi:role="line"
           style="font-size:6.35px;fill:#000000;stroke-width:5.29165"
           x="71.597946"
           y="165.18193"
           id="tspan2">(IP: 1.2.3.4)</tspan></text><g
         id="g73"
         transform="matrix(1.0811788,0,0,1.0811788,49.895849,3.2877142)"
         style="fill:#333333;fill-opacity:1;stroke-width:0.924916"><g
           id="XMLID_690_"
           transform="matrix(0.05354133,0,0,0.05354133,319.40118,199.81373)"
           style="fill:#333333;fill-opacity:1;stroke-width:4.57062">
		<g
   id="XMLID_691_"
   style="fill:#333333;fill-opacity:1;stroke-width:4.57062">
			<g
   id="g1"
   style="fill:#333333;fill-opacity:1;stroke-width:4.57062">
				<g
   id="XMLID_44_"
   style="fill:#333333;fill-opacity:1;stroke-width:4.57062">
					<g
   id="XMLID_48_"
   style="fill:#333333;fill-opacity:1;stroke-width:4.57062">
						<path
   id="XMLID_49_"
   class="st0"
   d="m 177,221.5 v -34.2 c 36.2,0 64.3,-35.9 50.4,-74 -5.1,-14 -16.4,-25.3 -30.5,-30.4 -38.1,-13.8 -74,14.2 -74,50.4 0,0 0,0 0,0 H 88.8 c 0,-57.7 55.8,-102.7 116.3,-83.8 26.4,8.3 47.5,29.3 55.7,55.7 18.9,60.5 -26.1,116.3 -83.8,116.3 z"
   style="fill:#333333;fill-opacity:1;stroke-width:4.57062" />
					</g>
					<polygon
   id="XMLID_47_"
   class="st1"
   points="177.1,187.5 143,187.5 143,153.4 177.1,153.4 "
   style="fill:#333333;fill-opacity:1;stroke-width:4.57062" />
					<polygon
   id="XMLID_46_"
   class="st1"
   points="116.9,213.6 116.9,187.5 143,187.5 143,213.6 "
   style="fill:#333333;fill-opacity:1;stroke-width:4.57062" />
					<path
   id="XMLID_45_"
   class="st1"
   d="M 116.9,187.5 H 95 c 0,0 0,0 0,0 v -21.9 c 0,0 0,0 0,0 h 21.9 c 0,0 0,0 0,0 z"
   style="fill:#333333;fill-opacity:1;stroke-width:4.57062" />
				</g>
			</g>
		</g>
	</g><g
           id="XMLID_234_"
           transform="matrix(0.10636204,0,0,0.10636204,338.36668,177.20199)"
           style="fill:#333333;fill-opacity:1;stroke-width:2.30079">
		<path
   id="XMLID_677_"
   class="st0"
   d="m 31.2,256.1 c -4.4,-3.1 -10,-4.6 -16.4,-4.6 H 0.8 V 296 h 14.1 c 6.4,0 12,-1.6 16.4,-4.9 2.4,-1.7 4.3,-4.1 5.7,-7.1 1.3,-3 2,-6.6 2,-10.5 0,-3.9 -0.7,-7.4 -2,-10.4 -1.4,-3 -3.3,-5.4 -5.8,-7 z M 9,259 h 4.4 c 4.9,0 8.9,1 12,2.9 3.4,2.1 5.1,6 5.1,11.6 0,5.8 -1.7,9.9 -5.1,12.1 v 0 c -2.9,1.9 -6.9,2.9 -11.9,2.9 H 9 Z"
   style="fill:#333333;fill-opacity:1;stroke-width:2.30079" />
		<path
   id="XMLID_676_"
   class="st0"
   d="m 48.7,250.9 c -1.4,0 -2.5,0.5 -3.5,1.4 -0.9,0.9 -1.4,2 -1.4,3.4 0,1.4 0.5,2.5 1.4,3.5 0.9,0.9 2.1,1.4 3.5,1.4 1.3,0 2.5,-0.5 3.5,-1.4 0.9,-0.9 1.4,-2.1 1.4,-3.5 0,-1.4 -0.5,-2.5 -1.4,-3.4 -1,-0.9 -2.2,-1.4 -3.5,-1.4 z"
   style="fill:#333333;fill-opacity:1;stroke-width:2.30079" />
		<rect
   id="XMLID_675_"
   x="44.700001"
   y="264.60001"
   class="st0"
   width="7.9000001"
   height="31.4"
   style="fill:#333333;fill-opacity:1;stroke-width:2.30079" />
		<path
   id="XMLID_670_"
   class="st0"
   d="m 81.3,267.2 c -2.4,-2.1 -5,-3.4 -7.9,-3.4 -4.4,0 -8,1.5 -10.8,4.5 -2.8,2.9 -4.3,6.7 -4.3,11.3 0,4.4 1.4,8.2 4.2,11.2 2.8,2.9 6.5,4.4 10.8,4.4 3,0 5.7,-0.8 7.8,-2.5 v 0.7 c 0,2.6 -0.7,4.6 -2.1,6 -1.4,1.4 -3.3,2.1 -5.7,2.1 -3.6,0 -5.9,-1.4 -8.7,-5.2 l -5.4,5.2 0.1,0.2 c 1.2,1.6 2.9,3.2 5.3,4.7 2.3,1.5 5.3,2.3 8.8,2.3 4.7,0 8.5,-1.4 11.3,-4.3 2.8,-2.9 4.2,-6.7 4.2,-11.4 v -28.5 h -7.8 v 2.7 z m -2.1,18.6 c -1.4,1.6 -3.2,2.3 -5.4,2.3 -2.3,0 -4,-0.8 -5.4,-2.3 -1.4,-1.6 -2,-3.6 -2,-6.1 0,-2.6 0.7,-4.6 2,-6.2 1.3,-1.6 3.2,-2.3 5.4,-2.3 2.3,0 4,0.8 5.4,2.3 1.4,1.6 2.1,3.7 2.1,6.2 0,2.5 -0.7,4.5 -2.1,6.1 z"
   style="fill:#333333;fill-opacity:1;stroke-width:2.30079" />
		<rect
   id="XMLID_668_"
   x="95.800003"
   y="264.60001"
   class="st0"
   width="7.9000001"
   height="31.4"
   style="fill:#333333;fill-opacity:1;stroke-width:2.30079" />
		<path
   id="XMLID_660_"
   class="st0"
   d="m 99.8,250.9 c -1.4,0 -2.5,0.5 -3.5,1.4 -0.9,0.9 -1.4,2 -1.4,3.4 0,1.4 0.5,2.5 1.4,3.5 0.9,0.9 2.1,1.4 3.5,1.4 1.3,0 2.5,-0.5 3.5,-1.4 0.9,-0.9 1.4,-2.1 1.4,-3.5 0,-1.4 -0.5,-2.5 -1.4,-3.4 -1,-0.9 -2.1,-1.4 -3.5,-1.4 z"
   style="fill:#333333;fill-opacity:1;stroke-width:2.30079" />
		<path
   id="XMLID_652_"
   class="st0"
   d="m 121,256.1 h -7.8 v 8.5 h -4.5 v 7.2 h 4.5 v 13 c 0,4.1 0.8,7 2.4,8.7 1.6,1.7 4.5,2.5 8.5,2.5 1.3,0 2.6,0 3.8,-0.1 h 0.4 v -7.2 l -2.7,0.1 c -1.9,0 -3.1,-0.3 -3.7,-1 -0.6,-0.7 -0.9,-2.1 -0.9,-4.2 v -11.9 h 7.4 v -7.2 H 121 Z"
   style="fill:#333333;fill-opacity:1;stroke-width:2.30079" />
		<rect
   id="XMLID_642_"
   x="165.39999"
   y="251.39999"
   class="st0"
   width="7.9000001"
   height="44.599998"
   style="fill:#333333;fill-opacity:1;stroke-width:2.30079" />
		<path
   id="XMLID_448_"
   class="st0"
   d="m 253.1,284.8 c -1.4,1.6 -2.9,3 -4,3.7 v 0 c -1.1,0.7 -2.5,1.1 -4.1,1.1 -2.3,0 -4.2,-0.8 -5.7,-2.6 -1.5,-1.7 -2.3,-4 -2.3,-6.6 0,-2.7 0.8,-4.9 2.3,-6.6 1.5,-1.7 3.4,-2.6 5.7,-2.6 2.5,0 5.2,1.6 7.5,4.3 l 5.2,-5 v 0 c -3.4,-4.4 -7.7,-6.5 -12.9,-6.5 -4.3,0 -8.1,1.6 -11.2,4.7 -3.1,3.1 -4.6,7 -4.6,11.7 0,4.7 1.6,8.6 4.6,11.7 3.1,3.1 6.8,4.7 11.2,4.7 5.7,0 10.3,-2.5 13.5,-7 z"
   style="fill:#333333;fill-opacity:1;stroke-width:2.30079" />
		<path
   id="XMLID_445_"
   class="st0"
   d="m 285.6,269 c -1.1,-1.6 -2.6,-2.8 -4.5,-3.7 -1.9,-0.9 -4.1,-1.4 -6.5,-1.4 -4.4,0 -8,1.6 -10.7,4.8 -2.6,3.2 -4,7.1 -4,11.8 0,4.8 1.5,8.7 4.3,11.7 2.9,3 6.7,4.5 11.4,4.5 5.3,0 9.7,-2.2 13,-6.4 l 0.2,-0.2 -5.2,-5 v 0 c -0.5,0.6 -1.2,1.2 -1.8,1.8 -0.8,0.7 -1.5,1.3 -2.3,1.7 -1.2,0.6 -2.5,0.9 -4,0.9 -2.2,0 -4,-0.6 -5.4,-1.9 -1.3,-1.2 -2.1,-2.8 -2.3,-4.8 h 20.9 l 0.1,-2.9 c 0,-2 -0.3,-4 -0.8,-5.8 -0.5,-1.8 -1.3,-3.5 -2.4,-5.1 z m -17.3,7.4 c 0.4,-1.5 1.1,-2.8 2.1,-3.7 1.1,-1.1 2.5,-1.6 4.1,-1.6 1.9,0 3.4,0.5 4.4,1.6 0.9,1 1.5,2.2 1.6,3.7 z"
   style="fill:#333333;fill-opacity:1;stroke-width:2.30079" />
		<path
   id="XMLID_442_"
   class="st0"
   d="m 315.9,267 v 0 c -2.4,-2 -5.7,-3.1 -9.8,-3.1 -2.6,0 -5.1,0.6 -7.3,1.7 -2.1,1 -4.1,2.8 -5.4,5 l 0.1,0.1 5.1,4.8 c 2.1,-3.3 4.4,-4.5 7.5,-4.5 1.7,0 3,0.4 4.1,1.3 1,0.9 1.6,2 1.6,3.4 v 1.5 c -2,-0.6 -3.9,-0.9 -5.8,-0.9 -3.9,0 -7.1,0.9 -9.5,2.7 -2.4,1.8 -3.6,4.5 -3.6,7.9 0,3 1,5.3 3.1,7.1 2.1,1.7 4.6,2.6 7.6,2.6 3,0 5.8,-1.2 8.4,-3.3 v 2.6 h 7.8 v -20.2 c -0.3,-3.7 -1.5,-6.7 -3.9,-8.7 z m -14,17 c 0.9,-0.6 2.2,-0.9 3.8,-0.9 1.9,0 3.9,0.4 6,1.1 v 3.1 c -1.7,1.6 -4,2.4 -6.8,2.4 -1.4,0 -2.4,-0.3 -3.2,-0.9 -0.7,-0.6 -1.1,-1.3 -1.1,-2.3 0,-1.1 0.4,-1.9 1.3,-2.5 z"
   style="fill:#333333;fill-opacity:1;stroke-width:2.30079" />
		<path
   id="XMLID_393_"
   class="st0"
   d="m 349.9,267.6 c -2.2,-2.5 -5.3,-3.7 -9.2,-3.7 -3.1,0 -5.7,0.9 -7.6,2.7 v -1.9 h -7.7 V 296 h 7.9 v -17.3 c 0,-2.4 0.6,-4.3 1.7,-5.6 1.1,-1.3 2.6,-2 4.7,-2 1.8,0 3.1,0.6 4.1,1.8 1,1.2 1.5,2.9 1.5,4.9 V 296 h 7.9 v -18.2 c 0,-4.3 -1.1,-7.8 -3.3,-10.2 z"
   style="fill:#333333;fill-opacity:1;stroke-width:2.30079" />
		<path
   id="XMLID_320_"
   class="st0"
   d="m 155.5,267 v 0 c -2.4,-2 -5.7,-3.1 -9.8,-3.1 -2.6,0 -5.1,0.6 -7.3,1.7 -2.1,1 -4.1,2.8 -5.4,5 l 0.1,0.1 5.1,4.8 c 2.1,-3.3 4.4,-4.5 7.5,-4.5 1.7,0 3,0.4 4.1,1.3 1,0.9 1.6,2 1.6,3.4 v 1.5 c -2,-0.6 -3.9,-0.9 -5.8,-0.9 -3.9,0 -7.1,0.9 -9.5,2.7 -2.4,1.8 -3.6,4.5 -3.6,7.9 0,3 1,5.3 3.1,7.1 2.1,1.7 4.6,2.6 7.6,2.6 3,0 5.8,-1.2 8.4,-3.3 v 2.6 h 7.8 v -20.2 c -0.3,-3.7 -1.5,-6.7 -3.9,-8.7 z m -14,17 c 0.9,-0.6 2.2,-0.9 3.8,-0.9 1.9,0 3.9,0.4 6,1.1 v 3.1 c -1.7,1.6 -4,2.4 -6.8,2.4 -1.4,0 -2.4,-0.3 -3.2,-0.9 -0.7,-0.6 -1.1,-1.3 -1.1,-2.3 0,-1.1 0.4,-1.9 1.3,-2.5 z"
   style="fill:#333333;fill-opacity:1;stroke-width:2.30079" />
		<path
   id="XMLID_235_"
   class="st0"
   d="m 202,296.7 c -12.7,0 -23,-10.3 -23,-23 0,-12.7 10.3,-23 23,-23 12.7,0 23,10.3 23,23 0,12.7 -10.3,23 -23,23 z m 0,-37.9 c -8.2,0 -14.9,6.7 -14.9,14.9 0,8.2 6.7,14.9 14.9,14.9 8.2,0 14.9,-6.7 14.9,-14.9 0,-8.2 -6.7,-14.9 -14.9,-14.9 z"
   style="fill:#333333;fill-opacity:1;stroke-width:2.30079" />
	</g></g><rect
         style="fill:#ffffff;fill-opacity:1;stroke:none;stroke-width:0.529167;stroke-linecap:square;stroke-linejoin:miter;stroke-dasharray:none;stroke-opacity:1"
         id="rect85"
         width="2.2227364"
         height="3.0941908"
         x="158.9785"
         y="134.76849" /><rect
         style="fill:#f7f7f7;fill-opacity:1;stroke:none;stroke-width:0.529167;stroke-linecap:square;stroke-linejoin:miter;stroke-dasharray:none;stroke-opacity:1"
         id="rect84"
         width="3.2820771"
         height="3.0941908"
         x="161.20123"
         y="134.76849" /><text
         xml:space="preserve"
         style="font-style:normal;font-variant:normal;font-weight:500;font-stretch:normal;font-size:5.64444px;line-height:1.2;font-family:Inter;-inkscape-font-specification:'Inter Medium';writing-mode:lr-tb;direction:ltr;fill:#333333;fill-opacity:1;stroke:none;stroke-width:0.529165;stroke-dasharray:none;stroke-opacity:1"
         x="103.00138"
         y="130.12375"
         id="text89"><tspan
           sodipodi:role="line"
           style="font-style:normal;font-size:5.64444px;fill:#333333;fill-opacity:1;stroke-width:0.529165"
           x="103.00138"
           y="130.12375"
           id="tspan89">1. Failed login attempt</tspan></text><rect
         style="fill:#ffffff;fill-opacity:1;stroke:none;stroke-width:0.529167;stroke-linecap:square;stroke-linejoin:miter;stroke-dasharray:none;stroke-opacity:1"
         id="rect97"
         width="2.2227364"
         height="3.0941908"
         x="158.9785"
         y="152.59911" /><rect
         style="fill:#f7f7f7;fill-opacity:1;stroke:none;stroke-width:0.529167;stroke-linecap:square;stroke-linejoin:miter;stroke-dasharray:none;stroke-opacity:1"
         id="rect98"
         width="3.2820771"
         height="3.0941908"
         x="161.20123"
         y="152.59911" /><path
         style="fill:#000000;fill-opacity:1;stroke:#333333;stroke-width:2.20705;stroke-dasharray:none;stroke-opacity:1;marker-end:url(#marker65-7)"
         d="m 260.18268,-61.713206 c -65.17031,0 -130.34058,0 -195.510882,0"
         id="path96"
         inkscape:path-effect="#path-effect97"
         inkscape:original-d="m 260.18268,-61.713206 c -65.17031,0 -130.34058,0 -195.510882,0"
         transform="matrix(-0.47952448,0,0,0.47952448,219.57805,183.73911)"
         sodipodi:nodetypes="cc" /><text
         xml:space="preserve"
         style="font-style:normal;font-variant:normal;font-weight:500;font-stretch:normal;font-size:5.64444px;line-height:1.2;font-family:Inter;-inkscape-font-specification:'Inter Medium';writing-mode:lr-tb;direction:ltr;fill:#333333;fill-opacity:1;stroke:none;stroke-width:0.529165;stroke-dasharray:none;stroke-opacity:1"
         x="103.00138"
         y="150.29369"
         id="text98"><tspan
           sodipodi:role="line"
           style="font-style:normal;font-size:5.64444px;fill:#333333;fill-opacity:1;stroke-width:0.529165"
           x="103.00138"
           y="150.29369"
           id="tspan98">5. Connection blocked</tspan></text><text
         xml:space="preserve"
         style="font-size:11.2889px;line-height:1.2;font-family:Inter;-inkscape-font-specification:Inter;writing-mode:lr-tb;direction:ltr;fill:#000000;fill-opacity:1;stroke:none;stroke-width:0.529167;stroke-linecap:square;stroke-linejoin:miter;stroke-dasharray:none;stroke-opacity:1"
         x="270.80258"
         y="74.086342"
         id="text99"><tspan
           sodipodi:role="line"
           id="tspan99"
           style="font-weight:bold;font-size:11.2889px;fill:#000000;stroke-width:0.529167"
           x="270.80258"
           y="74.086342">Server (Droplet)</tspan></text><path
         style="fill:none;fill-opacity:1;stroke:#800000;stroke-width:2.64583;stroke-linecap:square;stroke-linejoin:miter;stroke-dasharray:none;stroke-opacity:1"
         d="m 178.13027,150.83883 -6.61458,6.61458"
         id="path99" /><path
         style="fill:none;fill-opacity:1;stroke:#800000;stroke-width:2.64583;stroke-linecap:square;stroke-linejoin:miter;stroke-dasharray:none;stroke-opacity:1"
         d="m 171.51569,150.83883 6.61458,6.61458"
         id="path100" /><text
         xml:space="preserve"
         style="font-style:normal;font-variant:normal;font-weight:500;font-stretch:normal;font-size:5.64444px;line-height:1.2;font-family:Inter;-inkscape-font-specification:'Inter Medium';writing-mode:lr-tb;direction:ltr;fill:#333333;fill-opacity:1;stroke:none;stroke-width:0.529165;stroke-dasharray:none;stroke-opacity:1"
         x="321.97922"
         y="171.32068"
         id="text120"><tspan
           sodipodi:role="line"
           id="tspan120"
           style="font-size:5.64444px;fill:#333333;fill-opacity:1;stroke-width:0.529165"
           x="321.97922"
           y="171.32068">2. Write to log:</tspan><tspan
           sodipodi:role="line"
           style="font-style:italic;font-size:5.64444px;fill:#333333;fill-opacity:1;stroke-width:0.529165"
           x="321.97922"
           y="178.09401"
           id="tspan72">&quot;Invalid user ubuntu from 1.2.3.4 port 12345&quot;</tspan></text><rect
         style="fill:#e5e5e5;fill-opacity:1;stroke:#404040;stroke-width:0.529164;stroke-dasharray:none;stroke-opacity:1"
         id="rect67"
         width="54.305046"
         height="29.374451"
         x="194.12758"
         y="195.3912" /><g
         id="SVGRepo_iconCarrier"
         transform="matrix(1.4958508,0,0,1.4958508,209.31329,198.11156)"
         style="opacity:0.1;stroke-width:0.176878"><path
           d="M 4.35009,13.3929 8,16 11.6499,13.3929 C 13.7523,11.8912 15,9.46667 15,6.88306 V 3 L 8,0 1,3 v 3.88306 c 0,2.58361 1.24773,5.00814 3.35009,6.50984 z"
           fill="#000000"
           id="path1"
           style="stroke-width:0.176878" /></g><text
         xml:space="preserve"
         style="font-weight:bold;font-size:6.35px;line-height:1.2;font-family:Inter;-inkscape-font-specification:'Inter Bold';text-align:center;writing-mode:lr-tb;direction:ltr;text-anchor:middle;fill:#000000;fill-opacity:1;stroke-width:5.29164"
         x="221.51251"
         y="212.16837"
         id="text7"
         transform="scale(0.9989089,1.0010923)"><tspan
           sodipodi:role="line"
           style="font-size:6.35px;fill:#000000;stroke-width:5.29164"
           x="221.51251"
           y="212.16837"
           id="tspan8">Fail2Ban</tspan></text><g
         id="g67"
         transform="translate(55.597009,37.263734)"><g
           id="g23"
           transform="translate(-22.516076,10.738283)"><rect
             style="fill:#000000;fill-opacity:1;stroke:none;stroke-width:1.323;stroke-linecap:square;stroke-linejoin:round"
             id="rect9"
             width="11.202116"
             height="8.514864"
             x="160.78207"
             y="57.418736" /><rect
             style="fill:#000000;fill-opacity:1;stroke:none;stroke-width:1.323;stroke-linecap:square;stroke-linejoin:round"
             id="rect10"
             width="4.1178017"
             height="8.514864"
             x="173.59453"
             y="57.418736" /></g><g
           id="g24"
           transform="translate(-22.516076,10.990638)"><rect
             style="fill:#000000;fill-opacity:1;stroke:none;stroke-width:1.323;stroke-linecap:square;stroke-linejoin:round"
             id="rect12"
             width="6.3691883"
             height="8.514864"
             x="160.78207"
             y="67.821327" /><rect
             style="fill:#000000;fill-opacity:1;stroke:none;stroke-width:1.323;stroke-linecap:square;stroke-linejoin:round"
             id="rect13"
             width="8.9507332"
             height="8.514864"
             x="168.7616"
             y="67.821327" /></g><g
           id="g25"
           transform="translate(-22.516076,11.042169)"><rect
             style="fill:#000000;fill-opacity:1;stroke:none;stroke-width:1.323;stroke-linecap:square;stroke-linejoin:round"
             id="rect14"
             width="1.0327169"
             height="8.514864"
             x="-177.71234"
             y="78.424744"
             transform="scale(-1,1)" /><rect
             style="fill:#000000;fill-opacity:1;stroke:none;stroke-width:1.323;stroke-linecap:square;stroke-linejoin:round"
             id="rect15"
             width="14.287218"
             height="8.514864"
             x="-175.06929"
             y="78.424744"
             transform="scale(-1,1)" /></g><rect
           style="fill:#000000;fill-opacity:1;stroke:none;stroke-width:1.323;stroke-linecap:square;stroke-linejoin:round"
           id="rect16"
           width="16.930254"
           height="8.514864"
           x="138.26599"
           y="100.12186" /><g
           id="g26"
           transform="translate(-22.516076,11.54688)"><rect
             style="fill:#000000;fill-opacity:1;stroke:none;stroke-width:1.323;stroke-linecap:square;stroke-linejoin:round"
             id="rect18"
             width="6.6337757"
             height="8.514864"
             x="160.78207"
             y="99.229927" /><rect
             style="fill:#000000;fill-opacity:1;stroke:none;stroke-width:1.323;stroke-linecap:square;stroke-linejoin:round"
             id="rect19"
             width="8.6861458"
             height="8.514864"
             x="169.02618"
             y="99.229927" /></g><g
           id="g27"
           transform="translate(-22.516087,11.839408)"><rect
             style="fill:#000000;fill-opacity:1;stroke:none;stroke-width:1.323;stroke-linecap:square;stroke-linejoin:round"
             id="rect20"
             width="13.261019"
             height="8.514864"
             x="160.78207"
             y="109.59235" /><rect
             style="fill:#000000;fill-opacity:1;stroke:none;stroke-width:1.323;stroke-linecap:square;stroke-linejoin:round"
             id="rect21"
             width="2.0589049"
             height="8.514864"
             x="175.65343"
             y="109.59235" /></g></g><path
         style="fill:#ffffff;fill-opacity:1;stroke:none;stroke-width:1.32292;stroke-linecap:square;stroke-linejoin:round;stroke-dasharray:none;stroke-opacity:1"
         d="m 210.12583,147.96019 -1.50617,2.1488 c 0,0 -0.46189,2.42995 -0.46189,2.7111 0,0.28115 0.46189,1.66682 0.5623,2.04838 0.10041,0.38157 0.62726,1.48609 0.62726,1.68691 0,0.20082 1.92318,1.36559 1.92318,1.36559 l 1.52625,0.14058 1.52625,0.36148 1.9279,-0.66272 c 0,0 1.98814,-1.32542 2.04838,-1.42583 0.0602,-0.10041 1.46601,-4.13694 1.44592,-4.21727 -0.0201,-0.0803 -2.28936,-3.59472 -2.38978,-3.75538 -0.10041,-0.16065 -2.73119,-1.14468 -2.73119,-1.14468 l -2.10863,1.466 z"
         id="path29" /><path
         class="st0"
         d="m 216.9041,142.98613 c -1.40127,-1.1203 -1.94905,-2.3575 -2.15961,-3.23732 -0.16854,-0.7066 -0.0797,-0.78245 -0.0797,-0.78245 -0.008,-0.0844 -0.0602,-0.15699 -0.13605,-0.19183 -0.0773,-0.0361 -0.16633,-0.0288 -0.23525,0.0195 0,0 -0.2724,0.0588 -0.71411,0.48796 -1.00759,0.97833 -2.14724,2.60984 -1.39679,4.84077 0.80642,2.39398 0.38006,2.89455 -0.0416,2.86211 -0.54721,-0.0417 -0.63076,-0.37886 -0.54336,-1.42783 0.10141,-1.22623 -1.01062,-2.27314 -1.01062,-2.27314 0,0 -1.72781,2.7469 -3.07489,4.71184 -0.79627,1.1613 -1.17772,2.6378 -1.17772,3.98487 h -0.027 c 0,4.14105 3.3574,7.49927 7.49951,7.49927 4.14268,0 7.49926,-3.35822 7.49926,-7.49927 0.28554,-3.59755 -1.66838,-6.80767 -4.40209,-8.99447 z m -3.08423,14.38202 c -2.28415,0 -4.13743,-1.85251 -4.13743,-4.13739 0,-0.77759 0.216,-1.50571 0.58897,-2.12712 0.32188,1.19619 1.41359,2.0776 2.71207,2.0776 1.54988,0 2.80735,-1.25661 2.80735,-2.80654 0,-0.29612 -0.0464,-0.58167 -0.13162,-0.84978 1.36189,0.67744 2.29807,2.08169 2.29807,3.70584 0,2.28488 -1.8517,4.13739 -4.13741,4.13739 z"
         id="path7"
         style="fill:#800000;fill-opacity:1;stroke:#ffffff;stroke-width:1.32292;stroke-dasharray:none;stroke-opacity:1" /><text
         xml:space="preserve"
         style="font-weight:bold;font-size:6.35px;line-height:1.2;font-family:Inter;-inkscape-font-specification:'Inter Bold';text-align:center;writing-mode:lr-tb;direction:ltr;text-anchor:middle;fill:#000000;fill-opacity:1;stroke-width:5.29165"
         x="202.31728"
         y="92.636124"
         id="text30"><tspan
           sodipodi:role="line"
           style="font-size:6.35px;fill:#000000;stroke-width:5.29165"
           x="202.31728"
           y="92.636124"
           id="tspan30">Firewall</tspan><tspan
           sodipodi:role="line"
           style="font-size:6.35px;fill:#000000;stroke-width:5.29165"
           x="202.31728"
           y="100.25613"
           id="tspan31">(UFW)</tspan></text><rect
         style="fill:#e5e5e5;fill-opacity:1;stroke:#404040;stroke-width:0.529164;stroke-dasharray:none;stroke-opacity:1"
         id="rect31"
         width="54.305046"
         height="29.374451"
         x="307.66901"
         y="121.62833" /><text
         xml:space="preserve"
         style="font-weight:bold;font-size:6.35px;line-height:1.2;font-family:Inter;-inkscape-font-specification:'Inter Bold';text-align:center;writing-mode:lr-tb;direction:ltr;text-anchor:middle;fill:#000000;fill-opacity:1;stroke-width:5.29164"
         x="335.16245"
         y="134.41711"
         id="text33"
         transform="scale(0.9989089,1.0010923)"><tspan
           sodipodi:role="line"
           id="tspan32"
           style="font-size:6.35px;fill:#000000;stroke-width:5.29164"
           x="335.16245"
           y="134.41711">SSH service</tspan><tspan
           sodipodi:role="line"
           style="font-size:6.35px;fill:#000000;stroke-width:5.29164"
           x="335.16245"
           y="142.03711"
           id="tspan33">(Port 22)</tspan></text><path
         style="fill:#000000;fill-opacity:1;stroke:#333333;stroke-width:2.20705;stroke-dasharray:none;stroke-opacity:1;marker-end:url(#marker65)"
         d="m 137.15081,-65.318996 c 1e-5,21.405006 1e-5,42.810005 2e-5,64.2150106"
         id="path36"
         inkscape:path-effect="#path-effect38"
         inkscape:original-d="m 137.15081,-65.318996 c 1e-5,21.405006 1e-5,42.810005 2e-5,64.2150106"
         transform="matrix(-0.47952448,0,0,0.47952448,382.75568,188.74282)"
         sodipodi:nodetypes="cc" /><rect
         style="fill:#e5e5e5;fill-opacity:1;stroke:#404040;stroke-width:0.529164;stroke-dasharray:none;stroke-opacity:1"
         id="rect44"
         width="54.305046"
         height="29.374451"
         x="307.66901"
         y="195.3912" /><text
         xml:space="preserve"
         style="font-style:normal;font-variant:normal;font-weight:500;font-stretch:normal;font-size:5.64444px;line-height:1.2;font-family:Inter;-inkscape-font-specification:'Inter Medium';writing-mode:lr-tb;direction:ltr;fill:#333333;fill-opacity:1;stroke:none;stroke-width:0.529165;stroke-dasharray:none;stroke-opacity:1"
         x="260.95792"
         y="211.56947"
         id="text68"><tspan
           sodipodi:role="line"
           style="font-style:normal;font-size:5.64444px;fill:#333333;fill-opacity:1;stroke-width:0.529165"
           x="260.95792"
           y="211.56947"
           id="tspan68">3. Monitor log</tspan></text><path
         style="fill:none;fill-opacity:1;stroke:#333333;stroke-width:2.20705;stroke-dasharray:none;stroke-opacity:1;marker-end:url(#marker65)"
         d="m 160.60331,-61.713206 c -15.41164,-8.934286 -30.82328,-17.868572 -46.34659,-17.86857 -15.523319,2e-6 -31.158313,8.934285 -46.793311,17.86857"
         id="path73"
         inkscape:path-effect="#path-effect74"
         inkscape:original-d="m 160.60331,-61.713206 c -15.41164,-8.934286 -30.82328,-17.86857 -46.23491,-26.802854 -15.635,8.934284 -31.269994,17.868568 -46.904991,26.802854"
         transform="matrix(0.47952448,0,0,0.47952448,223.59931,234.9948)"
         sodipodi:nodetypes="ccc" /><path
         style="fill:none;fill-opacity:1;stroke:#333333;stroke-width:2.20705;stroke-dasharray:none;stroke-opacity:1;marker-end:url(#marker65)"
         d="m 160.60331,-61.713206 c -15.41164,-8.934286 -30.82328,-17.868572 -46.34659,-17.86857 -15.523319,2e-6 -31.158313,8.934285 -46.793311,17.86857"
         id="path74"
         inkscape:path-effect="#path-effect76"
         inkscape:original-d="m 160.60331,-61.713206 c -15.41164,-8.934286 -30.82328,-17.86857 -46.23491,-26.802854 -15.635,8.934284 -31.269994,17.868568 -46.904991,26.802854"
         transform="matrix(-0.47952448,0,0,-0.47952448,332.50232,185.1619)"
         sodipodi:nodetypes="ccc" /><text
         xml:space="preserve"
         style="font-style:normal;font-variant:normal;font-weight:500;font-stretch:normal;font-size:5.64444px;line-height:1.2;font-family:Inter;-inkscape-font-specification:'Inter Medium';writing-mode:lr-tb;direction:ltr;fill:#333333;fill-opacity:1;stroke:none;stroke-width:0.529165;stroke-dasharray:none;stroke-opacity:1"
         x="210.72369"
         y="179.58983"
         id="text78"><tspan
           sodipodi:role="line"
           style="font-style:normal;font-size:5.64444px;fill:#333333;fill-opacity:1;stroke-width:0.529165"
           x="210.72369"
           y="179.58983"
           id="tspan78">4. Update Firewall rule</tspan><tspan
           sodipodi:role="line"
           style="font-style:normal;font-size:5.64444px;fill:#333333;fill-opacity:1;stroke-width:0.529165"
           x="210.72369"
           y="186.36316"
           id="tspan80">(Block 1.2.3.4)</tspan></text><path
         style="fill:#000000;fill-opacity:1;stroke:#333333;stroke-width:2.20705;stroke-dasharray:none;stroke-opacity:1;marker-end:url(#marker65)"
         d="m 137.15081,-65.318996 c 1e-5,14.369256 1e-5,28.738507 2e-5,43.107763"
         id="path83"
         inkscape:path-effect="#path-effect84"
         inkscape:original-d="m 137.15081,-65.318996 c 1e-5,14.369256 1e-5,28.738507 2e-5,43.107763"
         transform="matrix(-0.47952448,0,0,-0.47952448,268.09531,160.56185)"
         sodipodi:nodetypes="cc" /><rect
         style="fill:#f7f7f7;fill-opacity:1;stroke:none;stroke-width:0.529168;stroke-linecap:square;stroke-linejoin:miter;stroke-dasharray:none;stroke-opacity:1"
         id="rect87"
         width="20.116192"
         height="6.194315"
         x="192.22197"
         y="133.21837" /><text
         xml:space="preserve"
         style="font-weight:bold;font-size:6.35px;line-height:1.2;font-family:Inter;-inkscape-font-specification:'Inter Bold';text-align:center;writing-mode:lr-tb;direction:ltr;text-anchor:middle;fill:#000000;fill-opacity:1;stroke-width:5.29164"
         x="335.34384"
         y="211.59785"
         id="text103"
         transform="scale(0.9989089,1.0010923)"><tspan
           sodipodi:role="line"
           style="font-size:6.35px;fill:#000000;stroke-width:5.29164"
           x="335.34384"
           y="211.59785"
           id="tspan103">/var/log/auth.log</tspan></text><path
         style="fill:#000000;fill-opacity:1;stroke:#333333;stroke-width:2.20705;stroke-dasharray:none;stroke-opacity:1;marker-end:url(#marker65-7)"
         d="m 260.18268,-61.713206 c -144.07228,0 -288.144475,0 -432.21673,0"
         id="path70"
         inkscape:path-effect="#path-effect72-2"
         inkscape:original-d="m 260.18268,-61.713206 c -144.07228,0 -288.144475,0 -432.21673,0"
         transform="matrix(-0.47952448,0,0,0.47952448,219.57805,165.90851)"
         sodipodi:nodetypes="cc" /></g></g><style
     type="text/css"
     id="style1-1">
	.st0{fill:#0080FF;}
	.st1{fill-rule:evenodd;clip-rule:evenodd;fill:#0080FF;}
</style></svg>
