<?xml version="1.0" encoding="UTF-8" standalone="no"?>
<!-- Created with Inkscape (http://www.inkscape.org/) -->

<svg
   width="1920"
   height="578"
   viewBox="0 0 507.99999 152.92917"
   version="1.1"
   id="svg1"
   xml:space="preserve"
   inkscape:version="1.4.3 (0d15f75042, 2025-12-25)"
   sodipodi:docname="ssh_tunnel_exaplanation.svg"
   inkscape:export-filename="ssh_tunnel_exaplanation.png"
   inkscape:export-xdpi="150"
   inkscape:export-ydpi="150"
   xmlns:inkscape="http://www.inkscape.org/namespaces/inkscape"
   xmlns:sodipodi="http://sodipodi.sourceforge.net/DTD/sodipodi-0.dtd"
   xmlns="http://www.w3.org/2000/svg"
   xmlns:svg="http://www.w3.org/2000/svg"><sodipodi:namedview
     id="namedview1"
     pagecolor="#ffffff"
     bordercolor="#000000"
     borderopacity="0.25"
     inkscape:showpageshadow="2"
     inkscape:pageopacity="0.0"
     inkscape:pagecheckerboard="0"
     inkscape:deskcolor="#d1d1d1"
     inkscape:document-units="px"
     inkscape:zoom="0.5"
     inkscape:cx="763"
     inkscape:cy="407"
     inkscape:window-width="2560"
     inkscape:window-height="1371"
     inkscape:window-x="0"
     inkscape:window-y="0"
     inkscape:window-maximized="1"
     inkscape:current-layer="layer1"
     showguides="true" /><defs
     id="defs1"><rect
       x="25.576399"
       y="-1069.4723"
       width="863.20447"
       height="542.86292"
       id="rect22" /><linearGradient
       id="a-4"
       x1="61.240002"
       x2="145.33"
       y1="37.939999"
       y2="183.58"
       gradientUnits="userSpaceOnUse"
       gradientTransform="matrix(0.0422056,0,0,0.0422056,121.07474,151.11626)"><stop
         offset="0"
         stop-opacity=".2"
         id="stop1-3" /><stop
         offset=".79"
         stop-opacity=".05"
         id="stop2-1" /></linearGradient></defs><g
     inkscape:label="Layer 1"
     inkscape:groupmode="layer"
     id="layer1"
     transform="translate(0,-65.616669)"><rect
       style="fill:#ffffff;fill-opacity:1;stroke:none;stroke-width:0.529167;stroke-linecap:butt;stroke-dasharray:none;stroke-opacity:1"
       id="rect43"
       width="508"
       height="152.92917"
       x="0"
       y="65.616669" /><g
       id="SVGRepo_bgCarrier-32"
       stroke-width="0"
       transform="matrix(0.26458333,0,0,0.26458333,81.491667,193.675)" /><g
       id="SVGRepo_tracerCarrier-06"
       stroke-linecap="round"
       stroke-linejoin="round"
       transform="matrix(0.26458333,0,0,0.26458333,81.491667,193.675)" /><g
       id="SVGRepo_bgCarrier-56"
       stroke-width="0"
       transform="matrix(0.26458333,0,0,0.26458333,108.74375,194.99792)" /><g
       id="SVGRepo_tracerCarrier-93"
       stroke-linecap="round"
       stroke-linejoin="round"
       transform="matrix(0.26458333,0,0,0.26458333,108.74375,194.99792)" /><g
       id="SVGRepo_bgCarrier"
       stroke-width="0"
       transform="matrix(1.3924314,0,0,1.3924314,939.63806,46.593335)" /><g
       id="SVGRepo_tracerCarrier"
       stroke-linecap="round"
       stroke-linejoin="round"
       transform="matrix(1.3924314,0,0,1.3924314,939.63806,46.593335)"
       style="stroke-width:0.190015" /><g
       id="SVGRepo_bgCarrier-6"
       stroke-width="0"
       transform="matrix(0.0922732,0,0,0.0922732,850.48362,39.233575)" /><g
       id="SVGRepo_tracerCarrier-2"
       stroke-linecap="round"
       stroke-linejoin="round"
       transform="matrix(0.0922732,0,0,0.0922732,850.48362,39.233575)"
       style="stroke-width:2.86739" /><g
       id="SVGRepo_bgCarrier-9"
       stroke-width="0"
       transform="matrix(0.05077175,0,0,0.05077175,923.52774,96.656865)" /><g
       id="SVGRepo_tracerCarrier-3"
       stroke-linecap="round"
       stroke-linejoin="round"
       transform="matrix(0.05077175,0,0,0.05077175,923.52774,96.656865)"
       style="stroke-width:5.21123" /><g
       id="SVGRepo_bgCarrier-62"
       stroke-width="0"
       transform="matrix(0.26458333,0,0,0.26458333,639.79539,136.89616)" /><g
       id="SVGRepo_tracerCarrier-6"
       stroke-linecap="round"
       stroke-linejoin="round"
       transform="matrix(0.26458333,0,0,0.26458333,639.79539,136.89616)" /><g
       id="SVGRepo_bgCarrier-2"
       stroke-width="0"
       transform="matrix(0.08737819,0,0,0.08737819,869.83912,135.42942)" /><g
       id="SVGRepo_tracerCarrier-28"
       stroke-linecap="round"
       stroke-linejoin="round"
       transform="matrix(0.08737819,0,0,0.08737819,869.83912,135.42942)"
       style="stroke-width:3.02802" /><g
       id="SVGRepo_bgCarrier-61"
       stroke-width="0"
       transform="matrix(2.0818457,0,0,2.0818457,1327.2628,28.258835)" /><g
       id="SVGRepo_tracerCarrier-5"
       stroke-linecap="round"
       stroke-linejoin="round"
       transform="matrix(2.0818457,0,0,2.0818457,1327.2628,28.258835)"
       style="stroke-width:0.127091" /><g
       id="SVGRepo_bgCarrier-3"
       stroke-width="0"
       transform="matrix(0.98565337,0,0,0.98565337,1312.1156,28.281065)" /><g
       id="SVGRepo_tracerCarrier-7"
       stroke-linecap="round"
       stroke-linejoin="round"
       transform="matrix(0.98565337,0,0,0.98565337,1312.1156,28.281065)"
       style="stroke-width:2.0854" /><g
       id="SVGRepo_bgCarrier-0"
       stroke-width="0"
       transform="matrix(1.8477872,0,0,1.8477872,1381.2563,47.763975)" /><g
       id="SVGRepo_tracerCarrier-6-5"
       stroke-linecap="round"
       stroke-linejoin="round"
       transform="matrix(1.8477872,0,0,1.8477872,1381.2563,47.763975)"
       style="stroke-width:0.143189" /><g
       id="SVGRepo_bgCarrier-9-4"
       stroke-width="0"
       transform="matrix(1.5715912,0,0,1.5715912,1426.6654,42.181345)" /><g
       id="SVGRepo_tracerCarrier-2-7"
       stroke-linecap="round"
       stroke-linejoin="round"
       transform="matrix(1.5715912,0,0,1.5715912,1426.6654,42.181345)"
       style="stroke-width:0.168354" /><g
       id="SVGRepo_bgCarrier-97"
       stroke-width="0"
       transform="matrix(1.4093503,0,0,1.4093503,1283.5901,43.984705)" /><g
       id="SVGRepo_tracerCarrier-3-6"
       stroke-linecap="round"
       stroke-linejoin="round"
       transform="matrix(1.4093503,0,0,1.4093503,1283.5901,43.984705)"
       style="stroke-width:2.0854" /><g
       id="SVGRepo_bgCarrier-94"
       stroke-width="0"
       transform="matrix(2.2558878,0,0,2.2558878,1196.815,-0.92157515)" /><g
       id="SVGRepo_tracerCarrier-78"
       stroke-linecap="round"
       stroke-linejoin="round"
       transform="matrix(2.2558878,0,0,2.2558878,1196.815,-0.92157515)"
       style="stroke-width:0.117286" /><g
       id="SVGRepo_bgCarrier-1"
       stroke-width="0"
       transform="matrix(1.8781358,0,0,1.8781358,1197.8741,34.491915)" /><g
       id="SVGRepo_tracerCarrier-0"
       stroke-linecap="round"
       stroke-linejoin="round"
       transform="matrix(1.8781358,0,0,1.8781358,1197.8741,34.491915)"
       style="stroke-width:0.140876" /><g
       id="SVGRepo_bgCarrier-5"
       stroke-width="0"
       transform="matrix(2.0944078,0,0,2.0944078,1152.1834,12.432745)" /><g
       id="SVGRepo_tracerCarrier-4"
       stroke-linecap="round"
       stroke-linejoin="round"
       transform="matrix(2.0944078,0,0,2.0944078,1152.1834,12.432745)"
       style="stroke-width:0.126328" /><g
       id="SVGRepo_bgCarrier-4"
       stroke-width="0"
       transform="matrix(0.41793276,0,0,0.41793276,1433.3314,-29.552765)" /><g
       id="SVGRepo_tracerCarrier-43"
       stroke-linecap="round"
       stroke-linejoin="round"
       transform="matrix(0.41793276,0,0,0.41793276,1433.3314,-29.552765)"
       style="stroke-width:0.633077" /><g
       id="SVGRepo_bgCarrier-06"
       stroke-width="0"
       transform="matrix(0.26458333,0,0,0.26458333,851.57343,34.816125)" /><g
       id="SVGRepo_tracerCarrier-8"
       stroke-linecap="round"
       stroke-linejoin="round"
       transform="matrix(0.26458333,0,0,0.26458333,851.57343,34.816125)" /><text
       xml:space="preserve"
       transform="scale(0.26458333)"
       id="text18"
       style="font-weight:500;font-size:48px;line-height:1.2;font-family:Inter;-inkscape-font-specification:'Inter Medium';writing-mode:lr-tb;direction:ltr;white-space:pre;shape-inside:url(#rect22);display:inline;fill:#ffffff;stroke:none;stroke-width:3;stroke-linecap:square" /><g
       id="SVGRepo_bgCarrier-062"
       stroke-width="0"
       transform="matrix(0.26458333,0,0,0.26458333,389.58124,171.91832)" /><g
       id="SVGRepo_tracerCarrier-61"
       stroke-linecap="round"
       stroke-linejoin="round"
       transform="matrix(0.26458333,0,0,0.26458333,389.58124,171.91832)" /><g
       id="SVGRepo_bgCarrier-8"
       stroke-width="0"
       transform="matrix(0.26458333,0,0,0.26458333,371.08797,151.04952)" /><g
       id="SVGRepo_tracerCarrier-79"
       stroke-linecap="round"
       stroke-linejoin="round"
       transform="matrix(0.26458333,0,0,0.26458333,371.08797,151.04952)" /><g
       id="SVGRepo_bgCarrier-23"
       stroke-width="0"
       transform="matrix(0.26458333,0,0,0.26458333,382.64353,151.67732)" /><g
       id="SVGRepo_tracerCarrier-75"
       stroke-linecap="round"
       stroke-linejoin="round"
       transform="matrix(0.26458333,0,0,0.26458333,382.64353,151.67732)" /><g
       id="SVGRepo_bgCarrier-612"
       stroke-width="0"
       transform="matrix(0.26458333,0,0,0.26458333,391.05416,154.78125)" /><g
       id="SVGRepo_tracerCarrier-9"
       stroke-linecap="round"
       stroke-linejoin="round"
       transform="matrix(0.26458333,0,0,0.26458333,391.05416,154.78125)" /><rect
       style="fill:#f7f7f7;fill-opacity:1;stroke:#404040;stroke-width:0.529167;stroke-dasharray:none;stroke-opacity:1"
       id="rect78"
       width="123.79533"
       height="72.124489"
       x="24.608398"
       y="106.01901" /><g
       id="g80"
       transform="matrix(0.65905355,0,0,0.65823702,31.389557,126.75505)"
       style="fill:#333333;fill-opacity:1;stroke-width:0.401709"><path
         fill="#000000"
         d="M 8.294,1 C 8.204,1 8.11,1.005 8.014,1.012 5.549,1.206 6.203,3.816 6.164,4.686 6.121,5.323 5.99,5.826 5.552,6.448 5.036,7.061 4.312,8.052 3.968,9.085 3.806,9.57 3.728,10.067 3.801,10.537 a 0.247,0.247 0 0 0 -0.064,0.079 c -0.152,0.156 -0.263,0.35 -0.387,0.49 -0.116,0.115 -0.283,0.155 -0.465,0.232 -0.183,0.08 -0.384,0.157 -0.504,0.397 a 0.78,0.78 0 0 0 -0.077,0.351 c 0,0.116 0.016,0.234 0.032,0.313 0.034,0.233 0.068,0.425 0.023,0.566 -0.145,0.396 -0.163,0.668 -0.062,0.865 0.102,0.195 0.313,0.275 0.549,0.351 0.472,0.117 1.114,0.079 1.618,0.35 0.54,0.272 1.088,0.39 1.526,0.274 0.307,-0.067 0.566,-0.27 0.705,-0.552 0.342,-10e-4 0.717,-0.157 1.318,-0.194 0.408,-0.034 0.918,0.155 1.503,0.116 0.015,0.078 0.037,0.116 0.067,0.194 l 10e-4,0.002 c 0.229,0.454 0.65,0.66 1.1,0.625 0.45,-0.035 0.928,-0.313 1.316,-0.762 0.368,-0.446 0.982,-0.632 1.387,-0.877 0.203,-0.116 0.367,-0.273 0.379,-0.497 0.013,-0.234 -0.117,-0.473 -0.417,-0.803 V 12.001 L 13.347,11.999 C 13.248,11.882 13.202,11.687 13.15,11.459 13.1,11.225 13.044,11 12.863,10.849 h -10e-4 c -0.035,-0.032 -0.072,-0.04 -0.11,-0.08 a 0.208,0.208 0 0 0 -0.11,-0.037 C 12.892,9.987 12.795,9.245 12.54,8.578 12.23,7.755 11.686,7.038 11.271,6.546 10.807,5.959 10.352,5.404 10.361,4.581 10.377,3.326 10.499,1.003 8.294,1 Z M 8.603,2.986 H 8.61 c 0.125,0 0.231,0.036 0.34,0.116 a 0.89,0.89 0 0 1 0.256,0.31 C 9.268,3.564 9.299,3.68 9.303,3.835 9.303,3.823 9.307,3.812 9.307,3.8 V 3.861 A 0.05,0.05 0 0 1 9.304,3.849 L 9.302,3.835 C 9.301,3.977 9.272,4.117 9.215,4.247 A 0.556,0.556 0 0 1 9.09,4.442 0.415,0.415 0 0 0 9.039,4.418 C 8.979,4.391 8.924,4.38 8.873,4.34 A 0.765,0.765 0 0 0 8.745,4.302 C 8.775,4.267 8.83,4.224 8.852,4.186 A 0.69,0.69 0 0 0 8.903,3.952 V 3.94 A 0.706,0.706 0 0 0 8.868,3.707 C 8.841,3.628 8.808,3.59 8.761,3.512 8.711,3.474 8.663,3.435 8.605,3.435 h -0.01 c -0.054,0 -0.102,0.018 -0.152,0.077 A 0.467,0.467 0 0 0 8.323,3.707 0.688,0.688 0 0 0 8.271,3.941 v 0.01 c 0,0.053 0.004,0.105 0.011,0.156 C 8.17,4.068 8.027,4.029 7.928,3.99 A 0.954,0.954 0 0 1 7.918,3.873 V 3.86 A 1.034,1.034 0 0 1 8.005,3.412 0.63,0.63 0 0 1 8.256,3.102 0.575,0.575 0 0 1 8.603,2.985 Z M 6.875,3.021 h 0.02 c 0.084,0 0.158,0.028 0.234,0.078 a 0.806,0.806 0 0 1 0.2,0.272 C 7.382,3.487 7.411,3.604 7.419,3.76 V 3.762 A 0.856,0.856 0 0 1 7.417,3.917 V 3.964 L 7.369,3.978 C 7.28,4.01 7.209,4.057 7.139,4.095 A 0.633,0.633 0 0 0 7.141,3.939 V 3.93 C 7.134,3.852 7.118,3.813 7.094,3.736 A 0.358,0.358 0 0 0 6.997,3.58 0.145,0.145 0 0 0 6.89,3.543 H 6.878 C 6.836,3.546 6.802,3.566 6.769,3.62 A 0.322,0.322 0 0 0 6.699,3.777 0.55,0.55 0 0 0 6.686,3.97 v 0.008 c 0.007,0.08 0.021,0.117 0.047,0.195 A 0.363,0.363 0 0 0 6.829,4.33 C 6.835,4.335 6.841,4.34 6.849,4.344 6.809,4.377 6.781,4.384 6.747,4.423 A 0.177,0.177 0 0 1 6.67,4.463 1.53,1.53 0 0 1 6.51,4.228 1.034,1.034 0 0 1 6.42,3.839 C 6.41,3.707 6.425,3.575 6.466,3.449 A 0.834,0.834 0 0 1 6.631,3.137 C 6.706,3.06 6.783,3.021 6.875,3.021 Z m 0.799,0.995 c 0.194,0 0.428,0.038 0.71,0.233 0.17,0.116 0.304,0.157 0.613,0.273 H 8.999 C 9.148,4.601 9.235,4.677 9.278,4.754 V 4.678 A 0.333,0.333 0 0 1 9.287,4.952 C 9.215,5.132 8.986,5.327 8.667,5.443 V 5.444 C 8.511,5.524 8.375,5.639 8.215,5.716 8.054,5.794 7.872,5.886 7.625,5.871 A 0.664,0.664 0 0 1 7.363,5.832 2.077,2.077 0 0 1 7.175,5.717 C 7.062,5.638 6.964,5.523 6.818,5.446 V 5.443 H 6.815 C 6.582,5.299 6.456,5.144 6.415,5.029 6.375,4.872 6.412,4.754 6.528,4.679 6.658,4.599 6.749,4.52 6.81,4.482 6.87,4.439 6.893,4.423 6.912,4.406 H 6.913 V 4.404 C 7.012,4.287 7.168,4.13 7.403,4.054 7.483,4.033 7.574,4.016 7.675,4.016 Z m 1.633,1.25 c 0.21,0.826 0.698,2.026 1.012,2.609 0.167,0.311 0.5,0.967 0.643,1.764 0.091,-0.003 0.193,0.01 0.3,0.037 C 11.638,8.701 10.943,7.654 10.626,7.362 10.498,7.246 10.491,7.167 10.555,7.167 c 0.344,0.312 0.796,0.917 0.96,1.608 0.075,0.312 0.093,0.644 0.012,0.974 0.039,0.017 0.079,0.035 0.12,0.04 0.601,0.311 0.824,0.547 0.717,0.896 V 10.66 c -0.035,-0.002 -0.07,0 -0.105,0 h -0.01 c 0.089,-0.272 -0.106,-0.481 -0.62,-0.714 -0.534,-0.233 -0.96,-0.196 -1.033,0.271 -0.005,0.025 -0.008,0.039 -0.01,0.079 -0.04,0.013 -0.082,0.03 -0.123,0.037 -0.25,0.157 -0.386,0.39 -0.462,0.693 -0.076,0.31 -0.1,0.674 -0.12,1.09 v 0.002 C 9.87,12.313 9.782,12.607 9.695,12.905 8.82,13.531 7.607,13.802 6.575,13.1 a 1.543,1.543 0 0 0 -0.234,-0.31 0.846,0.846 0 0 0 -0.16,-0.195 0.963,0.963 0 0 0 0.27,-0.04 0.359,0.359 0 0 0 0.184,-0.194 c 0.063,-0.156 0,-0.407 -0.201,-0.678 C 6.233,11.41 5.891,11.103 5.391,10.795 5.023,10.562 4.816,10.288 4.72,9.981 4.624,9.669 4.637,9.348 4.711,9.021 4.854,8.397 5.221,7.791 5.454,7.41 5.517,7.372 5.476,7.488 5.216,7.978 4.986,8.416 4.551,9.434 5.146,10.226 5.168,9.648 5.296,9.08 5.523,8.548 5.852,7.803 6.539,6.504 6.593,5.475 6.622,5.496 6.72,5.555 6.763,5.593 6.889,5.671 6.983,5.787 7.106,5.864 A 0.694,0.694 0 0 0 7.617,6.06 l 0.065,0.003 c 0.24,0 0.425,-0.078 0.581,-0.156 C 8.433,5.829 8.567,5.712 8.695,5.674 H 8.698 C 8.97,5.594 9.185,5.439 9.307,5.265 Z m 1.275,5.225 c 0.021,0.35 0.2,0.726 0.514,0.803 0.343,0.078 0.837,-0.194 1.045,-0.446 l 0.123,-0.006 c 0.184,-0.004 0.337,0.006 0.494,0.156 L 12.76,11 c 0.121,0.116 0.178,0.31 0.228,0.511 0.05,0.233 0.09,0.455 0.239,0.622 0.283,0.307 0.376,0.528 0.37,0.665 L 13.6,12.794 v 0.01 l -0.002,-0.007 c -0.009,0.153 -0.108,0.231 -0.29,0.347 -0.368,0.234 -1.02,0.416 -1.434,0.916 -0.36,0.43 -0.8,0.665 -1.188,0.695 -0.387,0.03 -0.721,-0.117 -0.918,-0.524 L 9.765,14.229 c -0.122,-0.233 -0.07,-0.597 0.033,-0.985 0.103,-0.39 0.25,-0.784 0.27,-1.107 0.022,-0.417 0.044,-0.779 0.114,-1.058 0.07,-0.271 0.18,-0.465 0.374,-0.574 l 0.026,-0.013 z M 4.274,10.519 H 4.28 a 0.53,0.53 0 0 1 0.091,0.009 c 0.22,0.032 0.412,0.194 0.597,0.438 l 0.53,0.97 0.003,0.003 c 0.141,0.31 0.44,0.62 0.693,0.955 0.253,0.348 0.45,0.66 0.425,0.915 v 0.004 c -0.033,0.434 -0.28,0.67 -0.656,0.755 -0.376,0.079 -0.887,0 -1.397,-0.27 C 4.001,13.984 3.331,14.024 2.899,13.946 2.684,13.907 2.544,13.829 2.478,13.713 2.414,13.596 2.412,13.361 2.549,12.995 V 12.993 L 2.551,12.991 C 2.619,12.796 2.568,12.552 2.535,12.339 2.503,12.105 2.486,11.925 2.56,11.79 2.653,11.596 2.79,11.557 2.962,11.48 3.134,11.4 3.336,11.362 3.496,11.205 h 10e-4 c 0.15,-0.157 0.26,-0.351 0.39,-0.49 0.11,-0.117 0.222,-0.196 0.387,-0.196 z M 8.45,5.226 C 8.196,5.343 7.899,5.538 7.582,5.538 7.266,5.538 7.016,5.383 6.835,5.266 6.745,5.188 6.672,5.11 6.618,5.071 6.522,4.993 6.534,4.877 6.574,4.877 6.638,4.887 6.65,4.955 6.691,4.994 6.747,5.032 6.816,5.11 6.901,5.188 7.071,5.304 7.297,5.46 7.581,5.46 7.864,5.46 8.196,5.304 8.397,5.188 8.511,5.11 8.657,4.994 8.775,4.916 8.865,4.836 8.862,4.76 8.938,4.76 9.012,4.77 8.958,4.838 8.852,4.954 8.722,5.052 8.588,5.143 8.449,5.227 Z M 7.819,4.303 V 4.29 C 7.815,4.278 7.826,4.266 7.836,4.26 7.879,4.236 7.941,4.245 7.987,4.263 c 0.037,0 0.094,0.04 0.088,0.079 C 8.071,4.371 8.025,4.38 7.996,4.38 7.964,4.38 7.942,4.355 7.914,4.34 7.884,4.33 7.829,4.336 7.819,4.303 Z m -0.322,0 C 7.486,4.337 7.431,4.331 7.4,4.341 7.373,4.356 7.35,4.381 7.319,4.381 7.289,4.381 7.243,4.369 7.239,4.341 7.234,4.303 7.291,4.264 7.327,4.264 7.374,4.246 7.434,4.236 7.478,4.261 7.489,4.266 7.499,4.278 7.496,4.29 v 0.012 h 10e-4 z"
         id="path80"
         style="fill:#333333;fill-opacity:1;stroke-width:0.401709" /></g><g
       id="g82"
       transform="matrix(0.65904462,0,0,0.6582281,56.395058,126.75506)"
       style="fill:#333333;fill-opacity:1;stroke-width:0.401714"><g
         fill="#000000"
         id="g81"
         style="fill:#333333;fill-opacity:1;stroke-width:0.401714"><path
           d="M 1,1 H 7.5 V 7.5 H 1 Z M 8.5,1 H 15 V 7.5 H 8.5 Z M 1,8.5 H 7.5 V 15 H 1 Z m 7.5,0 H 15 V 15 H 8.5 Z"
           id="path81"
           style="fill:#333333;fill-opacity:1;stroke-width:0.401714" /></g></g><g
       id="g83"
       transform="matrix(0.65904457,0,0,0.65822806,43.90874,126.75506)"
       style="fill:#333333;fill-opacity:1;stroke-width:0.401714"><path
         fill="#000000"
         d="m 9.4256023,3.242 c 0.435,-0.523 0.7419997,-1.24 0.7419997,-1.958 0,-0.105 -0.008,-0.202 -0.03,-0.284 -0.7039997,0.03 -1.5499997,0.47 -2.0599997,1.069 -0.397,0.448 -0.772,1.173 -0.772,1.891 0,0.112 0.023,0.217 0.03,0.254 0.045,0.008 0.12,0.015 0.188,0.015 0.636,0 1.43,-0.419 1.902,-0.987 z m 0.495,1.144 c -1.057,0 -1.918,0.643 -2.465,0.643 -0.591,0 -1.355,-0.606 -2.284,-0.606 -1.745,0 -3.513,1.443 -3.513,4.157 0,1.697 0.652,3.491 1.46,4.642 0.697,0.971 1.304,1.778 2.18,1.778 0.869,0 1.251,-0.575 2.33,-0.575 1.093,0 1.333,0.56 2.292,0.56 0.9499997,0 1.5869997,-0.867 2.1799997,-1.727 0.673,-0.986 0.95,-1.943 0.958,-1.988 -0.053,-0.015 -1.873,-0.755 -1.873,-2.833 0,-1.794 1.431,-2.6 1.513,-2.66 -0.943,-1.354 -2.381,-1.391 -2.7779997,-1.391 z"
         id="path82"
         style="fill:#333333;fill-opacity:1;stroke-width:0.401714" /></g><text
       xml:space="preserve"
       style="font-weight:bold;font-size:9.89749px;line-height:1.2;font-family:Inter;-inkscape-font-specification:'Inter Bold';writing-mode:lr-tb;direction:ltr;fill:#000000;fill-opacity:1;stroke-width:5.29167"
       x="32.797573"
       y="120.52344"
       id="text83"
       transform="scale(1.00062,0.99938038)"><tspan
         sodipodi:role="line"
         id="tspan83"
         style="font-size:9.89749px;fill:#000000;stroke-width:5.29167"
         x="32.797573"
         y="120.52344">Your laptop / desktop</tspan></text><g
       id="g86"
       transform="matrix(0.77981315,0,0,0.77884701,2.602378,77.840092)"
       style="stroke-width:0.679003;stroke-dasharray:none"><path
         id="path84"
         style="fill:#e5e5e5;fill-opacity:1;stroke:#404040;stroke-width:0.679003;stroke-dasharray:none;stroke-opacity:1"
         d="M 47.967663,87.493351 V 110.2889 h 18.81736 V 91.892932 l -4.399579,-4.399581 z" /><g
         id="g85"
         transform="matrix(0.73630092,0,0,0.73630092,51.638418,93.001786)"
         style="fill:#333333;fill-opacity:1;stroke-width:0.922181;stroke-dasharray:none"><path
           fill-rule="evenodd"
           clip-rule="evenodd"
           d="M 10.5,9 C 12.9853,9 15,6.98528 15,4.5 15,2.01472 12.9853,0 10.5,0 8.01475,0 6.00003,2.01472 6.00003,4.5 c 0,0.88054 0.25291,1.70201 0.69005,2.39574 L 0.585815,13 3.58292,15.9971 4.99714,14.5829 3.41424,13 5.00003,11.4142 6.58292,12.9971 7.99714,11.5829 6.41424,10 8.10429,8.30995 C 8.79801,8.74709 9.61949,9 10.5,9 Z m 0,-2 C 11.8807,7 13,5.88071 13,4.5 13,3.11929 11.8807,2 10.5,2 9.11932,2 8.00003,3.11929 8.00003,4.5 8.00003,5.88071 9.11932,7 10.5,7 Z"
           fill="#000000"
           id="path85"
           style="fill:#333333;fill-opacity:1;stroke-width:0.922181;stroke-dasharray:none" /></g></g><text
       xml:space="preserve"
       style="font-weight:bold;font-size:6.04847px;line-height:1.2;font-family:Inter;-inkscape-font-specification:'Inter Bold';writing-mode:lr-tb;direction:ltr;fill:#000000;fill-opacity:1;stroke-width:5.29167"
       x="32.439407"
       y="172.59109"
       id="text86"
       transform="scale(1.00062,0.99938038)"><tspan
         sodipodi:role="line"
         id="tspan86"
         style="font-style:normal;font-variant:normal;font-weight:500;font-stretch:normal;font-size:6.04847px;font-family:Inter;-inkscape-font-specification:'Inter Medium';fill:#000000;fill-opacity:1;stroke-width:5.29167"
         x="32.439407"
         y="172.59109">Private key</tspan></text><rect
       style="fill:#f7f7f7;fill-opacity:1;stroke:#404040;stroke-width:0.529167;stroke-dasharray:none;stroke-opacity:1"
       id="rect86"
       width="123.79533"
       height="72.124481"
       x="359.59622"
       y="106.01902" /><text
       xml:space="preserve"
       style="font-weight:bold;font-size:9.89749px;line-height:1.2;font-family:Inter;-inkscape-font-specification:'Inter Bold';writing-mode:lr-tb;direction:ltr;fill:#000000;fill-opacity:1;stroke-width:5.29167"
       x="367.57788"
       y="121.53348"
       id="text87"
       transform="scale(1.00062,0.99938038)"><tspan
         sodipodi:role="line"
         id="tspan87"
         style="font-size:9.89749px;fill:#000000;stroke-width:5.29167"
         x="367.57788"
         y="121.53348">Server on the cloud</tspan></text><g
       id="g91"
       transform="matrix(0.53500456,0,0,0.53434172,176.62392,105.69475)"
       style="fill:#333333;fill-opacity:1;stroke-width:1.87031"><g
         id="g90"
         style="fill:#333333;fill-opacity:1;stroke-width:6.27842"
         transform="matrix(0.07881813,0,0,0.07881813,350.9166,37.08874)">
			<g
   id="g89"
   style="fill:#333333;fill-opacity:1;stroke-width:6.27842">
				<g
   id="g88"
   style="fill:#333333;fill-opacity:1;stroke-width:6.27842">
					<g
   id="g87"
   style="fill:#333333;fill-opacity:1;stroke-width:6.27842">
						
					</g>
					<polygon
   id="polygon87"
   class="st1"
   points="177.1,187.5 143,187.5 143,153.4 177.1,153.4 "
   style="clip-rule:evenodd;fill:#333333;fill-opacity:1;fill-rule:evenodd;stroke-width:6.27842" />
					<polygon
   id="polygon88"
   class="st1"
   points="116.9,213.6 116.9,187.5 143,187.5 143,213.6 "
   style="clip-rule:evenodd;fill:#333333;fill-opacity:1;fill-rule:evenodd;stroke-width:6.27842" />
					<path
   id="path88"
   class="st1"
   d="M 116.9,187.5 H 95 c 0,0 0,0 0,0 v -21.9 c 0,0 0,0 0,0 h 21.9 c 0,0 0,0 0,0 z"
   style="clip-rule:evenodd;fill:#333333;fill-opacity:1;fill-rule:evenodd;stroke-width:6.27842" />
				</g>
			</g>
		</g><path
         id="path90"
         class="st0"
         d="m 364.86741,54.546956 v -2.69558 c 2.85322,0 5.068,-2.829571 3.97243,-5.832542 -0.40197,-1.103454 -1.29261,-1.994099 -2.40395,-2.396071 -3.00297,-1.08769 -5.83254,1.119217 -5.83254,3.972434 0,0 0,0 0,0 h -2.6877 c 0,-4.547806 4.39805,-8.094622 9.16655,-6.60496 2.0808,0.654191 3.74386,2.309372 4.39017,4.39017 1.48966,4.768497 -2.05715,9.166549 -6.60496,9.166549 z"
         style="fill:#333333;fill-opacity:1;stroke-width:0.494855" /></g><g
       id="g92"
       style="fill:#333333;fill-opacity:1;stroke-width:0.936883"
       transform="matrix(0.28258295,0,0,0.28223285,394.53935,124.31389)"><path
         d="m 14.4,20.6 a 5.1,5.1 0 0 0 0.2,1.3 l 0.4,1 a 0.4,0.4 0 0 1 0.1,0.3 c 0,0.2 -0.1,0.3 -0.2,0.5 l -1,0.6 h -0.3 a 0.6,0.6 0 0 1 -0.5,-0.2 1.8,1.8 0 0 1 -0.5,-0.7 5.6,5.6 0 0 1 -0.5,-0.8 5.4,5.4 0 0 1 -4.3,2 4,4 0 0 1 -2.9,-1.1 3.8,3.8 0 0 1 -1.1,-2.8 3.9,3.9 0 0 1 1.4,-3 5.2,5.2 0 0 1 3.5,-1.1 h 1.6 L 12,16.9 V 16 A 3.5,3.5 0 0 0 11.3,13.7 3.8,3.8 0 0 0 8.9,13 L 7.3,13.2 5.7,13.7 5.2,13.9 H 5 C 4.8,13.9 4.7,13.7 4.7,13.4 V 12.7 A 0.7,0.7 0 0 1 4.8,12.2 L 5.2,11.9 A 7.5,7.5 0 0 1 7,11.3 9.1,9.1 0 0 1 9.3,11 a 5.5,5.5 0 0 1 3.9,1.2 4.9,4.9 0 0 1 1.2,3.6 z M 8.5,22.8 10,22.5 a 4.2,4.2 0 0 0 1.4,-0.9 3.1,3.1 0 0 0 0.5,-1 c 0,-0.3 0.1,-0.7 0.1,-1.2 V 18.8 L 10.7,18.5 H 9.3 a 3.4,3.4 0 0 0 -2.2,0.6 2.1,2.1 0 0 0 -0.7,1.7 2.1,2.1 0 0 0 0.5,1.5 2.1,2.1 0 0 0 1.6,0.5 z m 11.7,1.6 A 0.6,0.6 0 0 1 19.7,24.2 0.9,0.9 0 0 1 19.3,23.6 L 15.9,12.3 a 1.8,1.8 0 0 1 -0.1,-0.6 0.3,0.3 0 0 1 0.3,-0.3 h 2 a 1.6,1.6 0 0 1 0.3,0.6 l 2.5,9.7 2.3,-9.7 a 0.8,0.8 0 0 1 0.2,-0.6 h 2.4 l 0.3,0.6 2.3,9.8 2.5,-9.8 0.3,-0.6 h 1.9 c 0.3,0 0.4,0.1 0.4,0.3 V 12 c 0,0.1 -0.1,0.2 -0.1,0.3 l -3.6,11.4 a 0.6,0.6 0 0 1 -0.3,0.5 L 29,24.4 h -1.3 a 0.7,0.7 0 0 1 -0.8,-0.8 l -2.3,-9.4 -2.3,9.4 a 0.8,0.8 0 0 1 -0.2,0.6 l -0.6,0.2 z M 39,24.8 a 8.3,8.3 0 0 1 -2.2,-0.3 l -1.7,-0.6 a 1.1,1.1 0 0 1 -0.5,-0.4 c 0,-0.1 -0.1,-0.3 -0.1,-0.4 v -0.8 a 0.4,0.4 0 0 1 0.4,-0.4 h 0.2 l 0.4,0.2 1.6,0.5 1.8,0.2 a 4.1,4.1 0 0 0 2.1,-0.5 1.6,1.6 0 0 0 0.8,-1.4 1.5,1.5 0 0 0 -0.4,-1 3.5,3.5 0 0 0 -1.5,-0.8 l -2.1,-0.7 a 4.6,4.6 0 0 1 -2.4,-1.4 3.6,3.6 0 0 1 -0.7,-2.2 2.9,2.9 0 0 1 0.4,-1.6 2.9,2.9 0 0 1 1,-1.2 l 1.6,-0.8 1.8,-0.2 h 1.9 l 0.9,0.3 0.6,0.2 c 0.2,0.1 0.3,0.3 0.4,0.4 a 0.7,0.7 0 0 1 0.1,0.5 v 0.7 c 0,0.3 -0.1,0.4 -0.3,0.4 a 0.6,0.6 0 0 1 -0.5,-0.2 8.8,8.8 0 0 0 -2.9,-0.5 3.6,3.6 0 0 0 -1.9,0.4 1.4,1.4 0 0 0 -0.7,1.3 1.4,1.4 0 0 0 0.5,1 2.9,2.9 0 0 0 1.6,0.8 l 2,0.7 a 4,4 0 0 1 2.3,1.4 3.1,3.1 0 0 1 0.7,2 4.3,4.3 0 0 1 -0.4,1.7 3.5,3.5 0 0 1 -1.1,1.3 3,3 0 0 1 -1.6,0.8 4.9,4.9 0 0 1 -2.1,0.6 z"
         id="path91"
         style="fill:#333333;fill-opacity:1;stroke-width:0.936883" /><path
         d="M 41.8,31.9 C 37,35.4 30,37.3 24,37.3 A 32.1,32.1 0 0 1 2.2,29 c -0.5,-0.4 0,-1 0.5,-0.6 a 44,44 0 0 0 21.8,5.8 45.2,45.2 0 0 0 16.6,-3.4 c 0.8,-0.4 1.5,0.5 0.7,1.1 z m 2,-2.3 C 43.2,28.8 39.7,29.2 38.2,29.4 36.7,29.6 37.6,29 38,28.7 c 2.8,-1.9 7.3,-1.3 7.8,-0.7 0.5,0.6 -0.1,5.2 -2.7,7.4 -0.4,0.3 -0.8,0.1 -0.6,-0.3 0.2,-0.4 1.9,-4.7 1.3,-5.5 z"
         id="path92"
         style="fill:#333333;fill-opacity:1;stroke-width:0.936883" /></g><g
       id="g94"
       transform="matrix(0.67965135,0,0,0.67880931,379.88795,126.03631)"
       style="fill:#333333;fill-opacity:1;stroke-width:0.389535"><g
         fill="#000000"
         id="g93"
         style="fill:#333333;fill-opacity:1;stroke-width:0.389535"><path
           d="M 7.47,12.412 10.818,11.82 10.849,11.813 9.127,9.764 A 291.474,291.474 0 0 1 7.404,7.706 c 0,-0.01 1.779,-4.909 1.789,-4.926 a 788.95,788.95 0 0 1 2.934,5.066 l 2.95,5.115 L 15.1,13 4.152,12.999 7.469,12.412 Z M 0.9,11.788 c 0,-0.003 0.811,-1.412 1.803,-3.131 L 4.507,5.53 6.609,3.766 C 7.765,2.797 8.714,2 8.717,2 A 0.37,0.37 0 0 1 8.684,2.085 L 6.4,6.981 4.16,11.789 2.53,11.791 c -0.897,10e-4 -1.63,0 -1.63,-0.003 z"
           id="path93"
           style="fill:#333333;fill-opacity:1;stroke-width:0.389535" /></g></g><g
       id="g96"
       transform="matrix(0.77981315,0,0,0.77884701,144.2154,78.961913)"
       style="stroke-width:1.28315"><path
         id="path94"
         style="fill:#e5e5e5;fill-opacity:1;stroke:#404040;stroke-width:0.679001;stroke-dasharray:none;stroke-opacity:1"
         d="m 366.66905,86.052993 v 22.795547 h 18.81736 V 90.452574 l -4.39958,-4.399581 z" /><g
         id="g95"
         transform="matrix(0.73616739,0,0,0.73616739,370.18839,91.561427)"
         style="fill:#333333;fill-opacity:1;stroke-width:0.461173"><path
           fill-rule="evenodd"
           clip-rule="evenodd"
           d="M 4,6 V 4 C 4,1.79086 5.79086,0 8,0 c 2.2091,0 4,1.79086 4,4 v 2 h 2 V 16 H 2 V 6 Z M 6,4 C 6,2.89543 6.89543,2 8,2 9.10457,2 10,2.89543 10,4 V 6 H 6 Z m 1,9 V 9 h 2 v 4 z"
           fill="#000000"
           id="path95"
           style="fill:#333333;fill-opacity:1;stroke-width:0.461173" /></g></g><text
       xml:space="preserve"
       style="font-weight:bold;font-size:6.04847px;line-height:1.2;font-family:Inter;-inkscape-font-specification:'Inter Bold';writing-mode:lr-tb;direction:ltr;fill:#000000;fill-opacity:1;stroke-width:5.29167"
       x="423.39584"
       y="172.59109"
       id="text96"
       transform="scale(1.00062,0.99938038)"><tspan
         sodipodi:role="line"
         id="tspan96"
         style="font-style:normal;font-variant:normal;font-weight:500;font-stretch:normal;font-size:6.04847px;font-family:Inter;-inkscape-font-specification:'Inter Medium';fill:#000000;fill-opacity:1;stroke-width:5.29167"
         x="423.39584"
         y="172.59109">Public key</tspan></text><text
       xml:space="preserve"
       style="font-weight:bold;font-size:9.89749px;line-height:1.2;font-family:Inter;-inkscape-font-specification:'Inter Bold';writing-mode:lr-tb;direction:ltr;fill:#000000;fill-opacity:1;stroke-width:5.29167"
       x="228.21027"
       y="125.44517"
       id="text17"
       transform="scale(1.00062,0.99938038)"><tspan
         sodipodi:role="line"
         id="tspan17"
         style="font-size:9.89749px;fill:#000000;stroke-width:5.29167"
         x="228.21027"
         y="125.44517">SSH tunnel</tspan></text><rect
       style="fill:#c5e5ff;fill-opacity:1;stroke:#404040;stroke-width:0.529165;stroke-dasharray:none;stroke-opacity:1"
       id="rect25"
       width="44.803486"
       height="17.753807"
       x="368.40887"
       y="146.24889" /><g
       id="g152"
       transform="translate(-2.5457746)"><g
         id="SVGRepo_iconCarrier-2"
         transform="matrix(0.28569949,0,0,0.28569949,388.1286,150.5546)"
         style="fill:#333333;fill-opacity:1;stroke-width:0.92609"><path
           d="m 18.6789,15.9759 c 0,-1.4344 -1.1993,-2.5974 -2.6789,-2.5974 -1.4794,0 -2.6789,1.163 -2.6789,2.5974 0,1.4346 1.1995,2.5975 2.6789,2.5975 1.4796,0 2.6789,-1.1629 2.6789,-2.5975 z"
           fill="#53c1de"
           id="path1-0"
           style="fill:#333333;fill-opacity:1;stroke-width:0.92609" /><path
           fill-rule="evenodd"
           clip-rule="evenodd"
           d="M 24.7004,11.1537 C 25.2661,8.92478 25.9772,4.79148 23.4704,3.39016 20.9753,1.99495 17.7284,4.66843 16.0139,6.27318 14.3044,4.68442 10.9663,2.02237 8.46163,3.42814 5.96751,4.82803 6.73664,8.8928 7.3149,11.1357 4.98831,11.7764 1,13.1564 1,15.9759 c 0,2.8115 3.98416,4.3129 6.29698,4.953 -0.5804,2.2553 -1.31102,6.262 1.18629,7.6588 2.51403,1.4055 5.84173,-1.1932 7.57213,-2.8155 1.7255,1.6142 4.9412,4.2299 7.4368,2.8292 2.5034,-1.4051 1.8514,-5.483 1.2731,-7.7389 C 27.0073,20.221 31,18.7523 31,15.9759 31,13.1835 26.9903,11.7923 24.7004,11.1537 Z m -0.2842,8.5133 c -0.3797,-1.1654 -0.8922,-2.4047 -1.5191,-3.6849 0.5984,-1.25 1.091,-2.4733 1.4601,-3.6312 1.6787,0.4719 5.3613,1.5504 5.3613,3.625 0,2.0941 -3.5339,3.1828 -5.3023,3.6911 z M 22.85,27.526 c -1.862,1.045 -4.6279,-1.4564 -5.9022,-2.6451 0.8454,-0.8965 1.6902,-1.9387 2.5147,-3.096 1.4504,-0.1247 2.8205,-0.3287 4.0631,-0.6072 0.407,1.5957 1.1946,5.2986 -0.6756,6.3483 z M 9.12362,27.5111 C 7.26143,26.47 8.11258,22.8946 8.53957,21.2333 c 1.22877,0.2636 2.58903,0.4532 4.04283,0.5675 0.8299,1.1324 1.6992,2.1733 2.5752,3.0849 -1.0823,1.0151 -4.1631,3.6713 -6.03398,2.6254 z M 2.28149,15.9759 c 0,-2.1019 3.66058,-3.1726 5.37755,-3.6433 0.37547,1.1839 0.86791,2.4218 1.46219,3.6736 C 8.51925,17.2766 8.01977,18.5341 7.64085,19.732 6.00369,19.2776 2.28149,18.0791 2.28149,15.9759 Z M 9.1037,4.50354 c 1.8698,-1.04938 4.771,1.50629 6.0122,2.65659 C 14.2444,8.06754 13.3831,9.1006 12.5603,10.2265 11.1494,10.3533 9.79875,10.5569 8.55709,10.8297 8.09125,9.02071 7.23592,5.55179 9.1037,4.50354 Z m 11.2756,7.07356 c 0.9572,0.1171 1.8743,0.2729 2.7354,0.4635 -0.2585,0.8034 -0.5807,1.6435 -0.9602,2.5047 -0.5501,-1.012 -1.1406,-2.0037 -1.7752,-2.9682 z m -4.365,-3.529 c 0.5911,0.62087 1.1831,1.3142 1.7655,2.0664 -1.1813,-0.0542 -2.3645,-0.0544 -3.5458,-8e-4 0.5829,-0.74522 1.18,-1.43752 1.7803,-2.0656 z M 9.8565,14.5444 C 9.48329,13.6862 9.16398,12.8424 8.90322,12.0275 9.75918,11.8418 10.672,11.69 11.623,11.5748 c -0.6364,0.9624 -1.2259,1.9537 -1.7665,2.9696 z m 1.7938,5.9213 c -0.9824,-0.1063 -1.90904,-0.2504 -2.76474,-0.431 0.26488,-0.8292 0.59122,-1.6912 0.9724,-2.5679 0.54804,1.0265 1.14654,2.0274 1.79234,2.9989 z m 4.3995,3.5258 c -0.6074,-0.6355 -1.2133,-1.3384 -1.805,-2.0944 1.188,0.0452 2.3783,0.0453 3.5662,-0.0061 -0.5842,0.7698 -1.1741,1.4737 -1.7612,2.1005 z m 6.1169,-6.5693 c 0.401,0.8862 0.739,1.7435 1.0075,2.5587 -0.8699,0.1925 -1.809,0.3475 -2.7985,0.4626 0.6393,-0.9828 1.2392,-1.9899 1.791,-3.0213 z m -3.4194,3.1719 c -1.8172,0.1259 -3.6457,0.1245 -5.4635,0.0103 -1.0329,-1.4629 -1.9524,-3.0014 -2.7461,-4.5986 0.7899,-1.5939 1.7027,-3.1294 2.7307,-4.59 1.8191,-0.1333 3.6494,-0.1337 5.4685,8e-4 1.0192,1.4605 1.9306,2.992 2.7388,4.5715 -0.7986,1.5931 -1.7162,3.1317 -2.7284,4.606 z m 4.083,-16.1275 c 1.8703,1.04594 1.0378,4.76066 0.6292,6.376 C 22.2149,10.5641 20.8633,10.3569 19.4483,10.2281 18.6239,9.09004 17.7698,8.05518 16.9124,7.15949 18.1695,5.98441 20.9781,3.43089 22.8303,4.4666 Z"
           fill="#53c1de"
           id="path2"
           style="fill:#333333;fill-opacity:1;stroke-width:0.92609" /></g><g
         id="SVGRepo_iconCarrier-9"
         transform="matrix(0.35561383,0,0,0.35561383,401.70601,149.43448)"
         style="fill:#333333;fill-opacity:1;stroke-width:0.744019"><title
           id="title1-2">file_type_nuxt</title><path
           d="M 10.648,25.734 A 1.465,1.465 0 0 1 10.491,24.792 H 3.847 l 9.869,-17.375 4.159,7.41 1.308,-0.976 -4.107,-7.384 A 1.752,1.752 0 0 0 13.7,5.56 1.531,1.531 0 0 0 12.357,6.484 l -10,17.593 A 1.729,1.729 0 0 0 2.27,25.733 1.526,1.526 0 0 0 3.726,26.439 H 12.1 a 1.523,1.523 0 0 1 -1.456,-0.7 z"
           style="fill:#333333;fill-opacity:1;stroke-width:0.744019"
           id="path1-2" /><path
           d="M 29.636,24.112 21.589,9.823 A 1.692,1.692 0 0 0 20.238,8.916 1.489,1.489 0 0 0 18.93,9.823 l -1.064,1.7 v 3.3 l 2.371,-4.071 7.951,14.071 h -3.025 a 1.377,1.377 0 0 1 -0.122,0.837 l -0.026,0.052 a 1.729,1.729 0 0 1 -1.456,0.732 h 4.734 a 1.72,1.72 0 0 0 1.456,-0.732 1.548,1.548 0 0 0 -0.122,-1.6 z"
           style="fill:#333333;fill-opacity:1;stroke-width:0.744019"
           id="path2-8" /><path
           d="m 25.233,25.7 0.026,-0.052 0.07,-0.139 a 1.278,1.278 0 0 0 0.061,-0.7 2.11,2.11 0 0 0 -0.27,-0.724 l -6.286,-10.9 -0.95,-1.656 h -0.017 l -0.959,1.648 -6.277,10.9 a 2.18,2.18 0 0 0 -0.244,0.715 1.438,1.438 0 0 0 0.148,0.942 1.563,1.563 0 0 0 1.482,0.7 h 11.708 a 1.79,1.79 0 0 0 1.508,-0.741 z M 17.866,14.836 23.62,24.8 H 12.112 Z"
           style="fill:#333333;fill-opacity:1;stroke-width:0.744019"
           id="path3" /></g><g
         id="SVGRepo_iconCarrier"
         transform="matrix(0.28605144,0,0,0.28605144,374.08047,150.54897)"
         style="fill:#333333;fill-opacity:1;stroke-width:0.92495"><title
           id="title1">vuejs</title><path
           d="M 16,18.599 7.452,3.791 h 5.536 L 16,9.014 19.012,3.791 h 5.536 z M 30.996,3.016 H 18.575 L 16.001,7.452 13.427,3.016 H 1.006 l 14.996,25.968 z"
           id="path1"
           style="fill:#333333;fill-opacity:1;stroke-width:0.92495" /></g></g><text
       xml:space="preserve"
       style="font-weight:bold;font-size:6.04847px;line-height:1.2;font-family:Inter;-inkscape-font-specification:'Inter Bold';writing-mode:lr-tb;direction:ltr;fill:#000000;fill-opacity:1;stroke-width:5.29167"
       x="378.43903"
       y="173.50562"
       id="text28"
       transform="scale(1.00062,0.99938038)"><tspan
         sodipodi:role="line"
         id="tspan28"
         style="font-style:normal;font-variant:normal;font-weight:500;font-stretch:normal;font-size:6.04847px;font-family:Inter;-inkscape-font-specification:'Inter Medium';fill:#000000;fill-opacity:1;stroke-width:5.29167"
         x="378.43903"
         y="173.50562">Frontend</tspan></text><path
       style="fill:#ffffff;stroke:#404040;stroke-width:0.529167;stroke-linecap:butt;stroke-dasharray:none;stroke-opacity:1"
       d="m 171.46494,142.08125 9.76083,0"
       id="path24"
       sodipodi:nodetypes="cc" /><path
       id="path36"
       style="baseline-shift:baseline;display:inline;overflow:visible;vector-effect:none;fill:#e5e5e5;stroke-width:0.999997;enable-background:accumulate;stop-color:#000000"
       d="m 184.78082,133.48541 v 0.0444 c -2.16159,0.43966 -3.84844,4.10016 -3.84844,8.5509 0,4.21755 1.51474,7.72568 3.51278,8.45582 v 0.13952 h 0.37684 0.39627 0.19671 0.0966 0.37799 136.6094 v -17.19068 h -136.13707 -0.85032 -0.29278 -5.7e-4 z" /><path
       id="path37"
       style="baseline-shift:baseline;display:inline;overflow:visible;vector-effect:none;fill:#404040;stroke-width:0.999997;enable-background:accumulate;stop-color:#000000"
       d="m 185.21771,133.22083 c -0.33979,0 -1.31601,0.27835 -1.86761,0.74621 -0.55159,0.46787 -1.02917,1.12682 -1.42844,1.92753 -0.79856,1.60141 -1.28149,3.77991 -1.28149,6.18567 0,2.40577 0.48293,4.58581 1.28149,6.18722 0.39927,0.80071 0.87685,1.45811 1.42844,1.92598 0.5516,0.46786 1.18803,0.74827 1.86761,0.74827 h 10e-4 137.57295 V 133.22083 H 185.21881 Z m 0.5867,0.52968 h 136.40183 v 16.66203 H 185.80441 v -5.1e-4 h -0.54325 -10e-4 c -0.504,0 -1.03566,-0.2031 -1.50964,-0.60513 -0.47397,-0.40204 -0.91827,-1.00329 -1.29463,-1.75804 -0.75272,-1.50949 -1.23001,-3.62729 -1.23001,-5.96862 0,-2.34132 0.47729,-4.45913 1.23001,-5.96863 0.37636,-0.75474 0.82066,-1.356 1.29463,-1.75803 0.45189,-0.3833 0.98315,-0.58413 1.46847,-0.60203 h 0.58556 z"
       sodipodi:nodetypes="csssssscccccccccccssssssccc" /><ellipse
       style="fill:#666666;fill-opacity:1;stroke:#404040;stroke-width:0.529167;stroke-linecap:butt;stroke-dasharray:none;stroke-opacity:1"
       id="path28-0"
       cx="322.49921"
       cy="142.08076"
       rx="4.2861309"
       ry="8.5953751" /><path
       style="fill:#ffffff;stroke:#404040;stroke-width:0.529167;stroke-linecap:butt;stroke-dasharray:none;stroke-opacity:1"
       d="m 322.79176,142.08125 13.74321,0"
       id="path25"
       sodipodi:nodetypes="cc" /><rect
       style="fill:#c5e5ff;fill-opacity:1;stroke:#404040;stroke-width:0.529163;stroke-dasharray:none;stroke-opacity:1"
       id="rect45"
       width="23.061228"
       height="9.6840153"
       x="336.53497"
       y="137.23924" /><g
       id="g148"
       transform="translate(-17.524779)"><rect
         style="fill:#ffcbcb;fill-opacity:1;stroke:none;stroke-width:0.529163;stroke-dasharray:none;stroke-opacity:1"
         id="rect46"
         width="16.432861"
         height="8.0002174"
         x="222.68649"
         y="160.1617" /><rect
         style="fill:#c5e5ff;fill-opacity:1;stroke:none;stroke-width:0.529163;stroke-dasharray:none;stroke-opacity:1"
         id="rect47"
         width="50.283756"
         height="8.0002174"
         x="241.55383"
         y="160.1617" /><text
         xml:space="preserve"
         style="font-weight:500;font-size:5.78563px;line-height:1.2;font-family:Inter;-inkscape-font-specification:'Inter Medium';writing-mode:lr-tb;direction:ltr;fill:#000000;fill-opacity:1;stroke:none;stroke-width:0.529166;stroke-linecap:butt;stroke-dasharray:none;stroke-opacity:1"
         x="200.37016"
         y="165.86885"
         id="text46"><tspan
           sodipodi:role="line"
           id="tspan46"
           style="font-style:normal;font-variant:normal;font-weight:500;font-stretch:normal;font-family:'JetBrainsMono Nerd Font';-inkscape-font-specification:'JetBrainsMono Nerd Font Medium';fill:#000000;fill-opacity:1;stroke-width:0.529166"
           x="200.37016"
           y="165.86885">ssh -L <tspan
   style="font-weight:bold"
   id="tspan173">8080:localhost:8080</tspan> user@server_ip</tspan></text></g><text
       xml:space="preserve"
       style="font-weight:bold;font-size:6.04847px;line-height:1.2;font-family:Inter;-inkscape-font-specification:'Inter Bold';writing-mode:lr-tb;direction:ltr;fill:#000000;fill-opacity:1;stroke-width:5.29167"
       x="83.800499"
       y="173.50562"
       id="text56"
       transform="scale(1.00062,0.99938038)"><tspan
         sodipodi:role="line"
         id="tspan56"
         style="font-style:normal;font-variant:normal;font-weight:500;font-stretch:normal;font-size:6.04847px;font-family:Inter;-inkscape-font-specification:'Inter Medium';fill:#000000;fill-opacity:1;stroke-width:5.29167"
         x="83.800499"
         y="173.50562">Browser</tspan></text><rect
       style="fill:#ffcbcb;fill-opacity:1;stroke:#404040;stroke-width:0.529165;stroke-dasharray:none;stroke-opacity:1"
       id="rect48"
       width="44.803593"
       height="17.753807"
       x="72.676895"
       y="146.24889" /><g
       id="g146"
       transform="translate(-5.3276993,0.01545464)"><g
         id="SVGRepo_iconCarrier-1"
         transform="matrix(0.15475387,0,0,0.15475387,83.077981,151.4117)"
         style="fill:#333333;fill-opacity:1;stroke-width:1.70971"><title
           id="title1-5">chrome-color</title><desc
           id="desc1">Created with Sketch.</desc><defs
           id="defs1-5" /><g
           id="Icons"
           stroke="none"
           stroke-width="1.70971"
           fill="none"
           fill-rule="evenodd"
           style="fill:#333333;fill-opacity:1"><g
             id="Color-"
             transform="translate(-400,-1043)"
             style="fill:#333333;fill-opacity:1;stroke-width:1.70971"><g
               id="chrome"
               transform="translate(400,1043)"
               style="fill:#333333;fill-opacity:1;stroke-width:1.70971"><path
                 d="M 5.7954035,8.3613043 C 16.952278,-4.6235153 37.639151,-2.0603799 45.372757,13.107208 c -5.443932,0.002 -13.968724,-0.0016 -18.58582,0 -3.348705,0.0012 -5.510806,-0.07495 -7.852209,1.157654 -2.752665,1.448962 -4.829601,4.134845 -5.554612,7.289572 z"
                 id="chrome-icon-path"
                 fill="#ea4335"
                 style="fill:#333333;fill-opacity:1;stroke-width:1.70971" /><path
                 d="m 16.015461,23.999135 c 0,4.40074 3.57822,7.980947 7.976519,7.980947 4.398183,0 7.976403,-3.580207 7.976403,-7.980947 0,-4.400625 -3.57822,-7.980948 -7.976403,-7.980948 -4.398299,0 -7.976519,3.580323 -7.976519,7.980948 z"
                 id="path1-4"
                 fill="#4285f4"
                 style="fill:#333333;fill-opacity:1;stroke-width:1.70971" /><path
                 d="M 27.087637,34.445648 C 22.61058,35.776175 17.371347,34.300635 14.501478,29.346888 12.310833,25.565599 6.5228611,15.482316 3.8920602,10.897396 -5.3218595,25.019469 2.6192424,44.264201 19.346457,47.548903 Z"
                 id="path2-7"
                 fill="#34a853"
                 style="fill:#333333;fill-opacity:1;stroke-width:1.70971" /><path
                 d="m 31.40147,16.018187 c 3.728861,3.468183 4.541251,9.084047 2.015421,13.43851 -1.902994,3.280738 -7.976636,13.531764 -10.920253,18.495654 17.234245,1.062416 29.797802,-15.828539 24.122957,-31.934164 z"
                 id="path3-6"
                 fill="#fbbc05"
                 style="fill:#333333;fill-opacity:1;stroke-width:1.70971" /></g></g></g></g><g
         id="g144"
         transform="translate(-23.624357)"><path
           fill="url(#a)"
           d="m 126.98344,153.17108 0.17523,-0.42932 -0.49649,-0.51402 c -0.26869,-0.26869 -0.84112,-0.11098 -0.84112,-0.11098 l -0.64837,-0.73598 h -2.28679 l -0.65129,0.7389 c 0,0 -0.57243,-0.15479 -0.84112,0.10806 l -0.4965,0.5111 0.17524,0.42932 -0.21904,0.63669 0.73014,2.78329 c 0.15186,0.59579 0.25408,0.82652 0.68341,1.13026 l 1.33469,0.90537 c 0.12851,0.0789 0.28622,0.21612 0.42933,0.21612 0.1431,0 0.30081,-0.13726 0.42932,-0.21612 l 1.33469,-0.90537 c 0.42933,-0.30374 0.53155,-0.53447 0.68341,-1.13026 l 0.73014,-2.78329 z"
           id="path4"
           style="fill:#333333;fill-opacity:1;stroke-width:0.264583" /><path
           fill="#ffffff"
           d="m 125.63998,152.58989 c 0,0 0.8382,1.01344 0.8382,1.22664 0,0.21904 -0.10514,0.27453 -0.21028,0.38843 l -0.62792,0.67173 c -0.0584,0.0584 -0.18399,0.15771 -0.11098,0.33003 0.073,0.17523 0.17524,0.39135 0.0584,0.61331 -0.11682,0.22489 -0.32126,0.37383 -0.45268,0.35047 a 2.3948592,2.3948592 0 0 1 -0.55491,-0.26285 c -0.11098,-0.073 -0.46729,-0.36799 -0.46729,-0.48189 0,-0.1139 0.36799,-0.32126 0.43808,-0.36215 0.0672,-0.0467 0.37968,-0.22781 0.38552,-0.2979 0.006,-0.0701 0.006,-0.0876 -0.0876,-0.26285 -0.0935,-0.17523 -0.25701,-0.40888 -0.23364,-0.56075 0.0292,-0.15187 0.29205,-0.23364 0.48773,-0.30666 l 0.60456,-0.2278 c 0.0467,-0.0234 0.035,-0.0438 -0.10514,-0.0584 -0.14019,-0.0117 -0.53447,-0.0643 -0.71262,-0.0146 -0.17815,0.0496 -0.47605,0.12558 -0.50526,0.16647 -0.0234,0.0409 -0.0467,0.0409 -0.0204,0.18107 l 0.16939,0.91998 c 0.0117,0.11682 0.035,0.19568 -0.0876,0.22488 -0.1285,0.0292 -0.3417,0.0789 -0.41471,0.0789 -0.073,0 -0.28914,-0.0497 -0.41472,-0.0789 -0.12559,-0.0292 -0.10222,-0.10806 -0.0876,-0.22488 0.0117,-0.11682 0.14019,-0.78271 0.16647,-0.91998 0.0292,-0.14018 0.003,-0.14018 -0.0204,-0.18107 -0.0292,-0.0409 -0.33003,-0.11682 -0.50818,-0.16647 -0.17523,-0.0497 -0.57243,0.003 -0.71262,0.0175 -0.14018,0.0117 -0.15187,0.0292 -0.10514,0.0584 l 0.60456,0.22488 c 0.19276,0.073 0.46145,0.15479 0.48773,0.30666 0.0292,0.15479 -0.13726,0.38552 -0.23364,0.56075 -0.0964,0.17523 -0.0935,0.19276 -0.0876,0.26285 0.006,0.0701 0.32126,0.25117 0.38551,0.2979 0.0701,0.0438 0.43809,0.24825 0.43809,0.36215 0,0.1139 -0.34755,0.40888 -0.46437,0.48189 a 2.3948592,2.3948592 0 0 1 -0.55491,0.26285 c -0.13142,0.0234 -0.33586,-0.12558 -0.4556,-0.35047 -0.11683,-0.22196 -0.0117,-0.43808 0.0584,-0.61331 0.073,-0.17524 -0.0496,-0.2687 -0.11098,-0.33003 l -0.62793,-0.67173 c -0.10221,-0.10806 -0.20735,-0.16647 -0.20735,-0.38259 0,-0.21612 0.8382,-1.22664 0.8382,-1.22664 l 0.79731,0.12851 c 0.0935,0 0.30082,-0.0789 0.49065,-0.14603 0.18984,-0.0584 0.32126,-0.0643 0.32126,-0.0643 0,0 0.12851,0 0.32127,0.0643 0.19275,0.0642 0.39719,0.14603 0.49065,0.14603 0.0964,0 0.80315,-0.13727 0.80315,-0.13727 z m -0.62792,3.87851 c 0.0526,0.0292 0.0204,0.0935 -0.0292,0.1285 l -0.74182,0.57827 c -0.0584,0.0584 -0.15187,0.14603 -0.21321,0.14603 -0.0613,0 -0.15186,-0.0876 -0.2132,-0.14603 a 38.551392,38.551392 0 0 0 -0.74474,-0.57827 c -0.0467,-0.035 -0.0789,-0.0964 -0.0292,-0.1285 l 0.43808,-0.23365 a 2.5408872,2.5408872 0 0 1 0.54906,-0.2132 c 0.0438,0 0.32127,0.0993 0.54615,0.2132 z"
           id="path5"
           style="fill:#e5e5e5;fill-opacity:1;stroke-width:0.264583" /><path
           fill="url(#b)"
           d="m 125.8269,152.11968 -0.65421,-0.7389 h -2.28679 l -0.65129,0.7389 c 0,0 -0.57243,-0.15479 -0.84112,0.10806 0,0 0.75934,-0.0672 1.0222,0.35923 l 0.80607,0.13727 c 0.0935,0 0.30082,-0.0789 0.49065,-0.14603 0.18984,-0.0584 0.32127,-0.0643 0.32127,-0.0643 0,0 0.1285,0 0.32126,0.0643 0.19275,0.0642 0.39719,0.14603 0.49065,0.14603 0.0964,0 0.80316,-0.13727 0.80316,-0.13727 0.26285,-0.4264 1.02219,-0.35923 1.02219,-0.35923 -0.26869,-0.26869 -0.84112,-0.11098 -0.84112,-0.11098"
           id="path6"
           style="fill:#333333;fill-opacity:1;stroke-width:0.264583" /></g><g
         id="g145"
         transform="translate(-11.038231)"><path
           fill="#ef3939"
           d="m 125.05895,158.83988 c 1.62913,0 2.53233,0 3.12321,-0.59087 0.59088,-0.59088 0.59088,-1.49408 0.59088,-3.12322 0,-1.62913 0,-2.53233 -0.59088,-3.12321 -0.59088,-0.59088 -1.49408,-0.59088 -3.12321,-0.59088 -1.62914,0 -2.53234,0 -3.12322,0.59088 -0.59087,0.59088 -0.59087,1.49408 -0.59087,3.12321 0,1.62914 0,2.53234 0.59087,3.12322 0.59088,0.59087 1.49408,0.59087 3.12322,0.59087 z"
           id="path1-8"
           style="fill:#333333;fill-opacity:1;stroke-width:0.264583" /><path
           fill="url(#a)"
           d="m 127.47311,153.74989 a 2.7855696,2.7855696 0 0 0 -5.1111,0.65841 2.7674212,2.7674212 0 0 0 0.287,2.12716 c 0.004,0.008 0.008,0.0169 0.0169,0.0253 l 1.30837,2.27066 1.07625,0.008 c 0.72171,0 1.30415,0 1.78107,-0.0506 0.59088,-0.0633 1.01716,-0.21103 1.34636,-0.54023 0.47693,-0.47693 0.56978,-1.16488 0.58666,-2.27066 z"
           id="path2-4"
           style="fill:url(#a-4);stroke-width:2.64583" /><path
           fill="#ffffff"
           d="m 127.01307,153.15901 a 2.7767064,2.7767064 0 0 0 -3.93356,0 2.7893681,2.7893681 0 0 0 0,3.93778 2.7767064,2.7767064 0 0 0 3.93356,0 2.7893681,2.7893681 0 0 0 0,-3.93778 z m -0.1646,1.28305 -1.37591,2.39306 c -0.0844,0.14772 -0.2068,0.23635 -0.37985,0.24901 -0.18992,0.0127 -0.33764,-0.0675 -0.43471,-0.23213 l -1.39279,-2.41838 c -0.17726,-0.3081 0.0211,-0.68373 0.37563,-0.70061 0.18571,-0.008 0.3292,0.076 0.42628,0.24057 0.13083,0.21947 0.25745,0.44316 0.38407,0.66685 l 0.27855,0.48114 c 0.13928,0.23213 0.33765,0.35875 0.60777,0.37563 0.37985,0.0211 0.73437,-0.25323 0.7808,-0.65841 0.004,-0.0295 0.004,-0.0591 0.008,-0.076 0,-0.13083 -0.0253,-0.24057 -0.0802,-0.34608 -0.1435,-0.287 0.008,-0.60354 0.31654,-0.67529 0.25324,-0.0549 0.51069,0.13084 0.54445,0.38407 0.0169,0.11395 -0.004,0.21947 -0.0591,0.31654 z"
           id="path3-9"
           style="fill:#e5e5e5;fill-opacity:1;stroke-width:0.264583" /></g></g><text
       xml:space="preserve"
       style="font-weight:bold;font-size:6.04847px;line-height:1.2;font-family:Inter;-inkscape-font-specification:'Inter Bold';writing-mode:lr-tb;direction:ltr;fill:#000000;fill-opacity:1;stroke-width:5.29167"
       x="340.20074"
       y="144.36958"
       id="text148"
       transform="scale(1.00062,0.99938038)"><tspan
         sodipodi:role="line"
         id="tspan148"
         style="font-style:normal;font-variant:normal;font-weight:bold;font-stretch:normal;font-size:6.04847px;font-family:Inter;-inkscape-font-specification:'Inter Medium';fill:#000000;fill-opacity:1;stroke-width:5.29167"
         x="340.20074"
         y="144.36958">8080</tspan></text><rect
       style="fill:#ffcbcb;fill-opacity:1;stroke:#404040;stroke-width:0.529163;stroke-dasharray:none;stroke-opacity:1"
       id="rect148"
       width="23.061228"
       height="9.6840153"
       x="148.40372"
       y="137.23924" /><text
       xml:space="preserve"
       style="font-weight:bold;font-size:6.04847px;line-height:1.2;font-family:Inter;-inkscape-font-specification:'Inter Bold';writing-mode:lr-tb;direction:ltr;fill:#000000;fill-opacity:1;stroke-width:5.29167"
       x="152.18605"
       y="144.36958"
       id="text149"
       transform="scale(1.00062,0.99938038)"><tspan
         sodipodi:role="line"
         id="tspan149"
         style="font-style:normal;font-variant:normal;font-weight:bold;font-stretch:normal;font-size:6.04847px;font-family:Inter;-inkscape-font-specification:'Inter Medium';fill:#000000;fill-opacity:1;stroke-width:5.29167"
         x="152.18605"
         y="144.36958">8080</tspan></text><g
       id="g159"
       transform="translate(4.7517882)"
       style="stroke-width:1.000125;stroke-dasharray:none;fill:#404040;fill-opacity:0.15000001"><path
         id="ellipse152"
         style="baseline-shift:baseline;display:inline;overflow:visible;opacity:1;fill:#404040;fill-opacity:0.15000001;enable-background:accumulate;stop-color:#000000;stop-opacity:1;stroke-width:1.000125;stroke-dasharray:none"
         d="m 301.13407,133.22081 c -1.32665,3.8e-4 -2.4675,1.06065 -3.26698,2.66392 -0.79962,1.60355 -1.28313,3.78629 -1.28313,6.19549 0,2.4092 0.48351,4.59349 1.28313,6.19704 0.79948,1.60327 1.94033,2.66354 3.26698,2.66392 v -0.52917 c -1.03995,-3.9e-4 -2.04265,-0.8639 -2.79414,-2.37091 -0.75165,-1.50736 -1.2268,-3.62299 -1.2268,-5.96088 0,-2.3379 0.47515,-4.45197 1.2268,-5.95933 0.75149,-1.50702 1.75419,-2.37052 2.79414,-2.37091 z" /><path
         id="path153"
         style="baseline-shift:baseline;display:inline;overflow:visible;opacity:1;fill:#404040;fill-opacity:0.15000001;enable-background:accumulate;stop-color:#000000;stop-opacity:1;stroke-width:1.000125;stroke-dasharray:none"
         d="m 296.58396,133.22081 c -1.32665,3.8e-4 -2.4675,1.06065 -3.26698,2.66392 -0.79962,1.60355 -1.28313,3.78629 -1.28313,6.19549 0,2.4092 0.48351,4.59349 1.28313,6.19704 0.79948,1.60327 1.94033,2.66354 3.26698,2.66392 v -0.52917 c -1.03995,-3.9e-4 -2.04265,-0.8639 -2.79414,-2.37091 -0.75165,-1.50736 -1.2268,-3.62299 -1.2268,-5.96088 0,-2.3379 0.47515,-4.45197 1.2268,-5.95933 0.75149,-1.50702 1.75419,-2.37052 2.79414,-2.37091 z" /></g><g
       id="g162"
       transform="translate(-11.696476)"
       style="stroke-width:1.000125;stroke-dasharray:none;fill:#404040;fill-opacity:0.15000001"><path
         id="path161"
         style="baseline-shift:baseline;display:inline;overflow:visible;opacity:1;fill:#404040;fill-opacity:0.15000001;enable-background:accumulate;stop-color:#000000;stop-opacity:1;stroke-width:1.000125;stroke-dasharray:none"
         d="m 301.13407,133.22081 c -1.32665,3.8e-4 -2.4675,1.06065 -3.26698,2.66392 -0.79962,1.60355 -1.28313,3.78629 -1.28313,6.19549 0,2.4092 0.48351,4.59349 1.28313,6.19704 0.79948,1.60327 1.94033,2.66354 3.26698,2.66392 v -0.52917 c -1.03995,-3.9e-4 -2.04265,-0.8639 -2.79414,-2.37091 -0.75165,-1.50736 -1.2268,-3.62299 -1.2268,-5.96088 0,-2.3379 0.47515,-4.45197 1.2268,-5.95933 0.75149,-1.50702 1.75419,-2.37052 2.79414,-2.37091 z" /><path
         id="path162"
         style="baseline-shift:baseline;display:inline;overflow:visible;opacity:1;fill:#404040;fill-opacity:0.15000001;enable-background:accumulate;stop-color:#000000;stop-opacity:1;stroke-width:1.000125;stroke-dasharray:none"
         d="m 296.58396,133.22081 c -1.32665,3.8e-4 -2.4675,1.06065 -3.26698,2.66392 -0.79962,1.60355 -1.28313,3.78629 -1.28313,6.19549 0,2.4092 0.48351,4.59349 1.28313,6.19704 0.79948,1.60327 1.94033,2.66354 3.26698,2.66392 v -0.52917 c -1.03995,-3.9e-4 -2.04265,-0.8639 -2.79414,-2.37091 -0.75165,-1.50736 -1.2268,-3.62299 -1.2268,-5.96088 0,-2.3379 0.47515,-4.45197 1.2268,-5.95933 0.75149,-1.50702 1.75419,-2.37052 2.79414,-2.37091 z" /></g><g
       id="g164"
       transform="translate(-28.14474)"
       style="stroke-width:1.000125;stroke-dasharray:none;fill:#404040;fill-opacity:0.15000001"><path
         id="path163"
         style="baseline-shift:baseline;display:inline;overflow:visible;opacity:1;fill:#404040;fill-opacity:0.15000001;enable-background:accumulate;stop-color:#000000;stop-opacity:1;stroke-width:1.000125;stroke-dasharray:none"
         d="m 301.13407,133.22081 c -1.32665,3.8e-4 -2.4675,1.06065 -3.26698,2.66392 -0.79962,1.60355 -1.28313,3.78629 -1.28313,6.19549 0,2.4092 0.48351,4.59349 1.28313,6.19704 0.79948,1.60327 1.94033,2.66354 3.26698,2.66392 v -0.52917 c -1.03995,-3.9e-4 -2.04265,-0.8639 -2.79414,-2.37091 -0.75165,-1.50736 -1.2268,-3.62299 -1.2268,-5.96088 0,-2.3379 0.47515,-4.45197 1.2268,-5.95933 0.75149,-1.50702 1.75419,-2.37052 2.79414,-2.37091 z" /><path
         id="path164"
         style="baseline-shift:baseline;display:inline;overflow:visible;opacity:1;fill:#404040;fill-opacity:0.15000001;enable-background:accumulate;stop-color:#000000;stop-opacity:1;stroke-width:1.000125;stroke-dasharray:none"
         d="m 296.58396,133.22081 c -1.32665,3.8e-4 -2.4675,1.06065 -3.26698,2.66392 -0.79962,1.60355 -1.28313,3.78629 -1.28313,6.19549 0,2.4092 0.48351,4.59349 1.28313,6.19704 0.79948,1.60327 1.94033,2.66354 3.26698,2.66392 v -0.52917 c -1.03995,-3.9e-4 -2.04265,-0.8639 -2.79414,-2.37091 -0.75165,-1.50736 -1.2268,-3.62299 -1.2268,-5.96088 0,-2.3379 0.47515,-4.45197 1.2268,-5.95933 0.75149,-1.50702 1.75419,-2.37052 2.79414,-2.37091 z" /></g><g
       id="g166"
       transform="translate(-44.593004)"
       style="stroke-width:1.000125;stroke-dasharray:none;fill:#404040;fill-opacity:0.15000001"><path
         id="path165"
         style="baseline-shift:baseline;display:inline;overflow:visible;opacity:1;fill:#404040;fill-opacity:0.15000001;enable-background:accumulate;stop-color:#000000;stop-opacity:1;stroke-width:1.000125;stroke-dasharray:none"
         d="m 301.13407,133.22081 c -1.32665,3.8e-4 -2.4675,1.06065 -3.26698,2.66392 -0.79962,1.60355 -1.28313,3.78629 -1.28313,6.19549 0,2.4092 0.48351,4.59349 1.28313,6.19704 0.79948,1.60327 1.94033,2.66354 3.26698,2.66392 v -0.52917 c -1.03995,-3.9e-4 -2.04265,-0.8639 -2.79414,-2.37091 -0.75165,-1.50736 -1.2268,-3.62299 -1.2268,-5.96088 0,-2.3379 0.47515,-4.45197 1.2268,-5.95933 0.75149,-1.50702 1.75419,-2.37052 2.79414,-2.37091 z" /><path
         id="path166"
         style="baseline-shift:baseline;display:inline;overflow:visible;opacity:1;fill:#404040;fill-opacity:0.15000001;enable-background:accumulate;stop-color:#000000;stop-opacity:1;stroke-width:1.000125;stroke-dasharray:none"
         d="m 296.58396,133.22081 c -1.32665,3.8e-4 -2.4675,1.06065 -3.26698,2.66392 -0.79962,1.60355 -1.28313,3.78629 -1.28313,6.19549 0,2.4092 0.48351,4.59349 1.28313,6.19704 0.79948,1.60327 1.94033,2.66354 3.26698,2.66392 v -0.52917 c -1.03995,-3.9e-4 -2.04265,-0.8639 -2.79414,-2.37091 -0.75165,-1.50736 -1.2268,-3.62299 -1.2268,-5.96088 0,-2.3379 0.47515,-4.45197 1.2268,-5.95933 0.75149,-1.50702 1.75419,-2.37052 2.79414,-2.37091 z" /></g><g
       id="g168"
       transform="translate(-61.041268)"
       style="stroke-width:1.000125;stroke-dasharray:none;fill:#404040;fill-opacity:0.15000001"><path
         id="path167"
         style="baseline-shift:baseline;display:inline;overflow:visible;opacity:1;fill:#404040;fill-opacity:0.15000001;enable-background:accumulate;stop-color:#000000;stop-opacity:1;stroke-width:1.000125;stroke-dasharray:none"
         d="m 301.13407,133.22081 c -1.32665,3.8e-4 -2.4675,1.06065 -3.26698,2.66392 -0.79962,1.60355 -1.28313,3.78629 -1.28313,6.19549 0,2.4092 0.48351,4.59349 1.28313,6.19704 0.79948,1.60327 1.94033,2.66354 3.26698,2.66392 v -0.52917 c -1.03995,-3.9e-4 -2.04265,-0.8639 -2.79414,-2.37091 -0.75165,-1.50736 -1.2268,-3.62299 -1.2268,-5.96088 0,-2.3379 0.47515,-4.45197 1.2268,-5.95933 0.75149,-1.50702 1.75419,-2.37052 2.79414,-2.37091 z" /><path
         id="path168"
         style="baseline-shift:baseline;display:inline;overflow:visible;opacity:1;fill:#404040;fill-opacity:0.15000001;enable-background:accumulate;stop-color:#000000;stop-opacity:1;stroke-width:1.000125;stroke-dasharray:none"
         d="m 296.58396,133.22081 c -1.32665,3.8e-4 -2.4675,1.06065 -3.26698,2.66392 -0.79962,1.60355 -1.28313,3.78629 -1.28313,6.19549 0,2.4092 0.48351,4.59349 1.28313,6.19704 0.79948,1.60327 1.94033,2.66354 3.26698,2.66392 v -0.52917 c -1.03995,-3.9e-4 -2.04265,-0.8639 -2.79414,-2.37091 -0.75165,-1.50736 -1.2268,-3.62299 -1.2268,-5.96088 0,-2.3379 0.47515,-4.45197 1.2268,-5.95933 0.75149,-1.50702 1.75419,-2.37052 2.79414,-2.37091 z" /></g><g
       id="g170"
       transform="translate(-77.489532)"
       style="stroke-width:1.000125;stroke-dasharray:none;fill:#404040;fill-opacity:0.15000001"><path
         id="path169"
         style="baseline-shift:baseline;display:inline;overflow:visible;opacity:1;fill:#404040;fill-opacity:0.15000001;enable-background:accumulate;stop-color:#000000;stop-opacity:1;stroke-width:1.000125;stroke-dasharray:none"
         d="m 301.13407,133.22081 c -1.32665,3.8e-4 -2.4675,1.06065 -3.26698,2.66392 -0.79962,1.60355 -1.28313,3.78629 -1.28313,6.19549 0,2.4092 0.48351,4.59349 1.28313,6.19704 0.79948,1.60327 1.94033,2.66354 3.26698,2.66392 v -0.52917 c -1.03995,-3.9e-4 -2.04265,-0.8639 -2.79414,-2.37091 -0.75165,-1.50736 -1.2268,-3.62299 -1.2268,-5.96088 0,-2.3379 0.47515,-4.45197 1.2268,-5.95933 0.75149,-1.50702 1.75419,-2.37052 2.79414,-2.37091 z" /><path
         id="path170"
         style="baseline-shift:baseline;display:inline;overflow:visible;opacity:1;fill:#404040;fill-opacity:0.15000001;enable-background:accumulate;stop-color:#000000;stop-opacity:1;stroke-width:1.000125;stroke-dasharray:none"
         d="m 296.58396,133.22081 c -1.32665,3.8e-4 -2.4675,1.06065 -3.26698,2.66392 -0.79962,1.60355 -1.28313,3.78629 -1.28313,6.19549 0,2.4092 0.48351,4.59349 1.28313,6.19704 0.79948,1.60327 1.94033,2.66354 3.26698,2.66392 v -0.52917 c -1.03995,-3.9e-4 -2.04265,-0.8639 -2.79414,-2.37091 -0.75165,-1.50736 -1.2268,-3.62299 -1.2268,-5.96088 0,-2.3379 0.47515,-4.45197 1.2268,-5.95933 0.75149,-1.50702 1.75419,-2.37052 2.79414,-2.37091 z" /></g><g
       id="g172"
       transform="translate(-93.937796)"
       style="stroke-width:1.000125;stroke-dasharray:none;fill:#404040;fill-opacity:0.15000001"><path
         id="path171"
         style="baseline-shift:baseline;display:inline;overflow:visible;opacity:1;fill:#404040;fill-opacity:0.15000001;enable-background:accumulate;stop-color:#000000;stop-opacity:1;stroke-width:1.000125;stroke-dasharray:none"
         d="m 301.13407,133.22081 c -1.32665,3.8e-4 -2.4675,1.06065 -3.26698,2.66392 -0.79962,1.60355 -1.28313,3.78629 -1.28313,6.19549 0,2.4092 0.48351,4.59349 1.28313,6.19704 0.79948,1.60327 1.94033,2.66354 3.26698,2.66392 v -0.52917 c -1.03995,-3.9e-4 -2.04265,-0.8639 -2.79414,-2.37091 -0.75165,-1.50736 -1.2268,-3.62299 -1.2268,-5.96088 0,-2.3379 0.47515,-4.45197 1.2268,-5.95933 0.75149,-1.50702 1.75419,-2.37052 2.79414,-2.37091 z" /><path
         id="path172"
         style="baseline-shift:baseline;display:inline;overflow:visible;opacity:1;fill:#404040;fill-opacity:0.15000001;enable-background:accumulate;stop-color:#000000;stop-opacity:1;stroke-width:1.000125;stroke-dasharray:none"
         d="m 296.58396,133.22081 c -1.32665,3.8e-4 -2.4675,1.06065 -3.26698,2.66392 -0.79962,1.60355 -1.28313,3.78629 -1.28313,6.19549 0,2.4092 0.48351,4.59349 1.28313,6.19704 0.79948,1.60327 1.94033,2.66354 3.26698,2.66392 v -0.52917 c -1.03995,-3.9e-4 -2.04265,-0.8639 -2.79414,-2.37091 -0.75165,-1.50736 -1.2268,-3.62299 -1.2268,-5.96088 0,-2.3379 0.47515,-4.45197 1.2268,-5.95933 0.75149,-1.50702 1.75419,-2.37052 2.79414,-2.37091 z" /></g><path
       style="fill:none;fill-opacity:0.15;stroke:#404040;stroke-width:0.52916667;stroke-linecap:butt;stroke-dasharray:none;stroke-opacity:1"
       d="m 359.59621,142.08126 4.272,0 1e-5,13.04452 4.54065,0"
       id="path174"
       sodipodi:nodetypes="cccc" /><path
       style="fill:none;fill-opacity:0.15;stroke:#404040;stroke-width:0.529167;stroke-linecap:butt;stroke-dasharray:none;stroke-opacity:1"
       d="m 148.40372,142.08125 h -5.79538 l 0,13.04453 -25.12786,0"
       id="path175"
       sodipodi:nodetypes="cccc" /></g></svg>
